<svg width="173" height="68" viewBox="0 0 173 68" fill="none" xmlns="http://www.w3.org/2000/svg">
<rect width="173" height="68" rx="6" fill="white" fill-opacity="0.4"/>
<path d="M37.668 17.538C38.124 17.61 38.538 17.796 38.91 18.096C39.294 18.396 39.594 18.768 39.81 19.212C40.038 19.656 40.152 20.13 40.152 20.634C40.152 21.27 39.99 21.846 39.666 22.362C39.342 22.866 38.868 23.268 38.244 23.568C37.632 23.856 36.906 24 36.066 24H31.386V11.454H35.886C36.738 11.454 37.464 11.598 38.064 11.886C38.664 12.162 39.114 12.54 39.414 13.02C39.714 13.5 39.864 14.04 39.864 14.64C39.864 15.384 39.66 16.002 39.252 16.494C38.856 16.974 38.328 17.322 37.668 17.538ZM33.024 16.872H35.778C36.546 16.872 37.14 16.692 37.56 16.332C37.98 15.972 38.19 15.474 38.19 14.838C38.19 14.202 37.98 13.704 37.56 13.344C37.14 12.984 36.534 12.804 35.742 12.804H33.024V16.872ZM35.922 22.65C36.738 22.65 37.374 22.458 37.83 22.074C38.286 21.69 38.514 21.156 38.514 20.472C38.514 19.776 38.274 19.23 37.794 18.834C37.314 18.426 36.672 18.222 35.868 18.222H33.024V22.65H35.922ZM44.0631 15.738C44.3511 15.174 44.7591 14.736 45.2871 14.424C45.8271 14.112 46.4811 13.956 47.2491 13.956V15.648H46.8171C44.9811 15.648 44.0631 16.644 44.0631 18.636V24H42.4251V14.136H44.0631V15.738ZM48.5279 19.032C48.5279 18.024 48.7319 17.142 49.1399 16.386C49.5479 15.618 50.1059 15.024 50.8139 14.604C51.5339 14.184 52.3319 13.974 53.2079 13.974C54.0719 13.974 54.8219 14.16 55.4579 14.532C56.0939 14.904 56.5679 15.372 56.8799 15.936V14.136H58.5359V24H56.8799V22.164C56.5559 22.74 56.0699 23.22 55.4219 23.604C54.7859 23.976 54.0419 24.162 53.1899 24.162C52.3139 24.162 51.5219 23.946 50.8139 23.514C50.1059 23.082 49.5479 22.476 49.1399 21.696C48.7319 20.916 48.5279 20.028 48.5279 19.032ZM56.8799 19.05C56.8799 18.306 56.7299 17.658 56.4299 17.106C56.1299 16.554 55.7219 16.134 55.2059 15.846C54.7019 15.546 54.1439 15.396 53.5319 15.396C52.9199 15.396 52.3619 15.54 51.8579 15.828C51.3539 16.116 50.9519 16.536 50.6519 17.088C50.3519 17.64 50.2019 18.288 50.2019 19.032C50.2019 19.788 50.3519 20.448 50.6519 21.012C50.9519 21.564 51.3539 21.99 51.8579 22.29C52.3619 22.578 52.9199 22.722 53.5319 22.722C54.1439 22.722 54.7019 22.578 55.2059 22.29C55.7219 21.99 56.1299 21.564 56.4299 21.012C56.7299 20.448 56.8799 19.794 56.8799 19.05ZM66.11 13.956C67.31 13.956 68.282 14.322 69.026 15.054C69.77 15.774 70.142 16.818 70.142 18.186V24H68.522V18.42C68.522 17.436 68.276 16.686 67.784 16.17C67.292 15.642 66.62 15.378 65.768 15.378C64.904 15.378 64.214 15.648 63.698 16.188C63.194 16.728 62.942 17.514 62.942 18.546V24H61.304V14.136H62.942V15.54C63.266 15.036 63.704 14.646 64.256 14.37C64.82 14.094 65.438 13.956 66.11 13.956ZM72.2056 19.032C72.2056 18.024 72.4096 17.142 72.8176 16.386C73.2256 15.618 73.7836 15.024 74.4916 14.604C75.2116 14.184 76.0156 13.974 76.9036 13.974C77.6716 13.974 78.3856 14.154 79.0456 14.514C79.7056 14.862 80.2096 15.324 80.5576 15.9V10.68H82.2136V24H80.5576V22.146C80.2336 22.734 79.7536 23.22 79.1176 23.604C78.4816 23.976 77.7376 24.162 76.8856 24.162C76.0096 24.162 75.2116 23.946 74.4916 23.514C73.7836 23.082 73.2256 22.476 72.8176 21.696C72.4096 20.916 72.2056 20.028 72.2056 19.032ZM80.5576 19.05C80.5576 18.306 80.4076 17.658 80.1076 17.106C79.8076 16.554 79.3996 16.134 78.8836 15.846C78.3796 15.546 77.8216 15.396 77.2096 15.396C76.5976 15.396 76.0396 15.54 75.5356 15.828C75.0316 16.116 74.6296 16.536 74.3296 17.088C74.0296 17.64 73.8796 18.288 73.8796 19.032C73.8796 19.788 74.0296 20.448 74.3296 21.012C74.6296 21.564 75.0316 21.99 75.5356 22.29C76.0396 22.578 76.5976 22.722 77.2096 22.722C77.8216 22.722 78.3796 22.578 78.8836 22.29C79.3996 21.99 79.8076 21.564 80.1076 21.012C80.4076 20.448 80.5576 19.794 80.5576 19.05ZM85.5037 24.108C85.1917 24.108 84.9277 24 84.7117 23.784C84.4957 23.568 84.3877 23.304 84.3877 22.992C84.3877 22.68 84.4957 22.416 84.7117 22.2C84.9277 21.984 85.1917 21.876 85.5037 21.876C85.8037 21.876 86.0557 21.984 86.2597 22.2C86.4757 22.416 86.5837 22.68 86.5837 22.992C86.5837 23.304 86.4757 23.568 86.2597 23.784C86.0557 24 85.8037 24.108 85.5037 24.108ZM85.5037 16.404C85.1917 16.404 84.9277 16.296 84.7117 16.08C84.4957 15.864 84.3877 15.6 84.3877 15.288C84.3877 14.976 84.4957 14.712 84.7117 14.496C84.9277 14.28 85.1917 14.172 85.5037 14.172C85.8037 14.172 86.0557 14.28 86.2597 14.496C86.4757 14.712 86.5837 14.976 86.5837 15.288C86.5837 15.6 86.4757 15.864 86.2597 16.08C86.0557 16.296 85.8037 16.404 85.5037 16.404Z" fill="#4F6D7A"/>
<path d="M9 11.604V20.789C9.00001 21.4475 9.16257 22.0957 9.47326 22.6763C9.78395 23.2568 10.2332 23.7517 10.781 24.117L16 27.597L21.219 24.117C21.7667 23.7518 22.2158 23.2571 22.5265 22.6767C22.8372 22.0964 22.9998 21.4483 23 20.79V11.604L16 10.05L9 11.604ZM7.783 9.826L16 8L24.217 9.826C24.4391 9.87536 24.6377 9.99897 24.78 10.1764C24.9224 10.3538 25 10.5745 25 10.802V20.789C24.9999 21.7767 24.756 22.7492 24.2899 23.62C23.8238 24.4908 23.1499 25.2331 22.328 25.781L16 30L9.672 25.781C8.85027 25.2332 8.17646 24.4911 7.71035 23.6205C7.24424 22.7498 7.00024 21.7776 7 20.79V10.802C7.00004 10.5745 7.07764 10.3538 7.21999 10.1764C7.36234 9.99897 7.56094 9.87536 7.783 9.826ZM16 20.5L13.061 22.045L13.622 18.773L11.245 16.455L14.531 15.977L16 13L17.47 15.977L20.755 16.455L18.378 18.773L18.938 22.045L16 20.5Z" fill="#4F6D7A"/>
</svg>
