<svg width="62" height="66" viewBox="0 0 62 66" fill="none" xmlns="http://www.w3.org/2000/svg">
<rect width="62" height="66" rx="6" fill="black" fill-opacity="0.4"/>
<path d="M16.352 46.64V57H15.078V46.64H16.352ZM19.1813 48.082C18.9386 48.082 18.7333 47.998 18.5653 47.83C18.3973 47.662 18.3133 47.4567 18.3133 47.214C18.3133 46.9713 18.3973 46.766 18.5653 46.598C18.7333 46.43 18.9386 46.346 19.1813 46.346C19.4146 46.346 19.6106 46.43 19.7693 46.598C19.9373 46.766 20.0213 46.9713 20.0213 47.214C20.0213 47.4567 19.9373 47.662 19.7693 47.83C19.6106 47.998 19.4146 48.082 19.1813 48.082ZM19.7973 49.328V57H18.5233V49.328H19.7973ZM25.1326 49.202C25.7953 49.202 26.374 49.3467 26.8686 49.636C27.3726 49.9253 27.746 50.2893 27.9886 50.728V49.328H29.2766V57.168C29.2766 57.868 29.1273 58.4887 28.8286 59.03C28.53 59.5807 28.1006 60.01 27.5406 60.318C26.99 60.626 26.346 60.78 25.6086 60.78C24.6006 60.78 23.7606 60.542 23.0886 60.066C22.4166 59.59 22.02 58.9413 21.8986 58.12H23.1586C23.2986 58.5867 23.588 58.96 24.0266 59.24C24.4653 59.5293 24.9926 59.674 25.6086 59.674C26.3086 59.674 26.878 59.4547 27.3166 59.016C27.7646 58.5773 27.9886 57.9613 27.9886 57.168V55.558C27.7366 56.006 27.3633 56.3793 26.8686 56.678C26.374 56.9767 25.7953 57.126 25.1326 57.126C24.4513 57.126 23.8306 56.958 23.2706 56.622C22.72 56.286 22.286 55.8147 21.9686 55.208C21.6513 54.6013 21.4926 53.9107 21.4926 53.136C21.4926 52.352 21.6513 51.666 21.9686 51.078C22.286 50.4807 22.72 50.0187 23.2706 49.692C23.8306 49.3653 24.4513 49.202 25.1326 49.202ZM27.9886 53.15C27.9886 52.5713 27.872 52.0673 27.6386 51.638C27.4053 51.2087 27.088 50.882 26.6866 50.658C26.2946 50.4247 25.8606 50.308 25.3846 50.308C24.9086 50.308 24.4746 50.42 24.0826 50.644C23.6906 50.868 23.378 51.1947 23.1446 51.624C22.9113 52.0533 22.7946 52.5573 22.7946 53.136C22.7946 53.724 22.9113 54.2373 23.1446 54.676C23.378 55.1053 23.6906 55.4367 24.0826 55.67C24.4746 55.894 24.9086 56.006 25.3846 56.006C25.8606 56.006 26.2946 55.894 26.6866 55.67C27.088 55.4367 27.4053 55.1053 27.6386 54.676C27.872 54.2373 27.9886 53.7287 27.9886 53.15ZM35.2376 49.188C35.8162 49.188 36.3389 49.314 36.8056 49.566C37.2722 49.8087 37.6362 50.1773 37.8976 50.672C38.1682 51.1667 38.3036 51.7687 38.3036 52.478V57H37.0436V52.66C37.0436 51.8947 36.8522 51.3113 36.4696 50.91C36.0869 50.4993 35.5642 50.294 34.9016 50.294C34.2296 50.294 33.6929 50.504 33.2916 50.924C32.8996 51.344 32.7036 51.9553 32.7036 52.758V57H31.4296V46.64H32.7036V50.42C32.9556 50.028 33.3009 49.7247 33.7396 49.51C34.1876 49.2953 34.6869 49.188 35.2376 49.188ZM41.9386 50.378V54.9C41.9386 55.2733 42.018 55.5393 42.1766 55.698C42.3353 55.8473 42.6106 55.922 43.0026 55.922H43.9406V57H42.7926C42.0833 57 41.5513 56.8367 41.1966 56.51C40.842 56.1833 40.6646 55.6467 40.6646 54.9V50.378H39.6706V49.328H40.6646V47.396H41.9386V49.328H43.9406V50.378H41.9386Z" fill="#C0D6DF"/>
<path d="M31 14.4545C30.6136 14.4545 30.29 14.3236 30.0291 14.0618C29.7673 13.8009 29.6364 13.4773 29.6364 13.0909V10.3636C29.6364 9.97727 29.7673 9.65318 30.0291 9.39136C30.29 9.13045 30.6136 9 31 9C31.3864 9 31.7105 9.13045 31.9723 9.39136C32.2332 9.65318 32.3636 9.97727 32.3636 10.3636V13.0909C32.3636 13.4773 32.2332 13.8009 31.9723 14.0618C31.7105 14.3236 31.3864 14.4545 31 14.4545ZM37.75 17.25C37.5 17 37.375 16.6873 37.375 16.3118C37.375 15.9373 37.5 15.6136 37.75 15.3409L39.6591 13.3977C39.9318 13.125 40.2555 12.9886 40.63 12.9886C41.0055 12.9886 41.3295 13.125 41.6023 13.3977C41.8523 13.6477 41.9773 13.9659 41.9773 14.3523C41.9773 14.7386 41.8523 15.0568 41.6023 15.3068L39.6591 17.25C39.4091 17.5 39.0909 17.625 38.7045 17.625C38.3182 17.625 38 17.5 37.75 17.25ZM41.9091 25.3636C41.5227 25.3636 41.1991 25.2327 40.9382 24.9709C40.6764 24.71 40.5455 24.3864 40.5455 24C40.5455 23.6136 40.6764 23.2895 40.9382 23.0277C41.1991 22.7668 41.5227 22.6364 41.9091 22.6364H44.6364C45.0227 22.6364 45.3464 22.7668 45.6073 23.0277C45.8691 23.2895 46 23.6136 46 24C46 24.3864 45.8691 24.71 45.6073 24.9709C45.3464 25.2327 45.0227 25.3636 44.6364 25.3636H41.9091ZM31 39C30.6136 39 30.29 38.8691 30.0291 38.6073C29.7673 38.3464 29.6364 38.0227 29.6364 37.6364V34.9091C29.6364 34.5227 29.7673 34.1991 30.0291 33.9382C30.29 33.6764 30.6136 33.5455 31 33.5455C31.3864 33.5455 31.7105 33.6764 31.9723 33.9382C32.2332 34.1991 32.3636 34.5227 32.3636 34.9091V37.6364C32.3636 38.0227 32.2332 38.3464 31.9723 38.6073C31.7105 38.8691 31.3864 39 31 39ZM22.3409 17.25L20.3977 15.3409C20.125 15.0682 19.9886 14.7386 19.9886 14.3523C19.9886 13.9659 20.125 13.6477 20.3977 13.3977C20.6477 13.1477 20.9659 13.0227 21.3523 13.0227C21.7386 13.0227 22.0568 13.1477 22.3068 13.3977L24.25 15.3409C24.5 15.5909 24.625 15.9091 24.625 16.2955C24.625 16.6818 24.5 17 24.25 17.25C23.9773 17.5 23.6591 17.625 23.2955 17.625C22.9318 17.625 22.6136 17.5 22.3409 17.25ZM39.6591 34.6023L37.75 32.6591C37.5 32.3864 37.375 32.0627 37.375 31.6882C37.375 31.3127 37.5 31 37.75 30.75C38 30.5 38.3127 30.375 38.6882 30.375C39.0627 30.375 39.3864 30.5 39.6591 30.75L41.6023 32.6591C41.875 32.9091 42.0055 33.2273 41.9936 33.6136C41.9827 34 41.8523 34.3295 41.6023 34.6023C41.3295 34.875 41 35.0114 40.6136 35.0114C40.2273 35.0114 39.9091 34.875 39.6591 34.6023ZM17.3636 25.3636C16.9773 25.3636 16.6536 25.2327 16.3927 24.9709C16.1309 24.71 16 24.3864 16 24C16 23.6136 16.1309 23.2895 16.3927 23.0277C16.6536 22.7668 16.9773 22.6364 17.3636 22.6364H20.0909C20.4773 22.6364 20.8014 22.7668 21.0632 23.0277C21.3241 23.2895 21.4545 23.6136 21.4545 24C21.4545 24.3864 21.3241 24.71 21.0632 24.9709C20.8014 25.2327 20.4773 25.3636 20.0909 25.3636H17.3636ZM20.3977 34.6023C20.1477 34.3523 20.0227 34.0341 20.0227 33.6477C20.0227 33.2614 20.1477 32.9432 20.3977 32.6932L22.3409 30.75C22.5909 30.5 22.9036 30.375 23.2791 30.375C23.6536 30.375 23.9773 30.5 24.25 30.75C24.5227 31.0227 24.6591 31.3468 24.6591 31.7223C24.6591 32.0968 24.5227 32.4205 24.25 32.6932L22.3409 34.6023C22.0682 34.875 21.7386 35.0114 21.3523 35.0114C20.9659 35.0114 20.6477 34.875 20.3977 34.6023ZM31 32.1818C28.7273 32.1818 26.7955 31.3864 25.2045 29.7955C23.6136 28.2045 22.8182 26.2727 22.8182 24C22.8182 21.7273 23.6136 19.7955 25.2045 18.2045C26.7955 16.6136 28.7273 15.8182 31 15.8182C33.2727 15.8182 35.2045 16.6136 36.7955 18.2045C38.3864 19.7955 39.1818 21.7273 39.1818 24C39.1818 26.2727 38.3864 28.2045 36.7955 29.7955C35.2045 31.3864 33.2727 32.1818 31 32.1818ZM31 29.4545C32.5 29.4545 33.7841 28.9205 34.8523 27.8523C35.9205 26.7841 36.4545 25.5 36.4545 24C36.4545 22.5 35.9205 21.2159 34.8523 20.1477C33.7841 19.0795 32.5 18.5455 31 18.5455C29.5 18.5455 28.2159 19.0795 27.1477 20.1477C26.0795 21.2159 25.5455 22.5 25.5455 24C25.5455 25.5 26.0795 26.7841 27.1477 27.8523C28.2159 28.9205 29.5 29.4545 31 29.4545Z" fill="#C0D6DF"/>
</svg>
