<svg width="62" height="66" viewBox="0 0 62 66" fill="none" xmlns="http://www.w3.org/2000/svg">
<rect width="62" height="66" rx="6" fill="white"/>
<path d="M26.424 60.001C25.7053 60.001 25.052 59.8377 24.464 59.511C23.8853 59.1843 23.428 58.7223 23.092 58.125C22.7653 57.5183 22.602 56.8183 22.602 56.025C22.602 55.241 22.77 54.5503 23.106 53.953C23.4513 53.3463 23.918 52.8843 24.506 52.567C25.094 52.2403 25.752 52.077 26.48 52.077C27.208 52.077 27.866 52.2403 28.454 52.567C29.042 52.8843 29.504 53.3417 29.84 53.939C30.1853 54.5363 30.358 55.2317 30.358 56.025C30.358 56.8183 30.1807 57.5183 29.826 58.125C29.4807 58.7223 29.0093 59.1843 28.412 59.511C27.8147 59.8377 27.152 60.001 26.424 60.001ZM26.424 58.881C26.8813 58.881 27.3107 58.7737 27.712 58.559C28.1133 58.3443 28.4353 58.0223 28.678 57.593C28.93 57.1637 29.056 56.641 29.056 56.025C29.056 55.409 28.9347 54.8863 28.692 54.457C28.4493 54.0277 28.132 53.7103 27.74 53.505C27.348 53.2903 26.9233 53.183 26.466 53.183C25.9993 53.183 25.57 53.2903 25.178 53.505C24.7953 53.7103 24.4873 54.0277 24.254 54.457C24.0207 54.8863 23.904 55.409 23.904 56.025C23.904 56.6503 24.016 57.1777 24.24 57.607C24.4733 58.0363 24.7813 58.3583 25.164 58.573C25.5467 58.7783 25.9667 58.881 26.424 58.881ZM35.7711 52.063C36.7044 52.063 37.4604 52.3477 38.0391 52.917C38.6177 53.477 38.9071 54.289 38.9071 55.353V59.875H37.6471V55.535C37.6471 54.7697 37.4557 54.1863 37.0731 53.785C36.6904 53.3743 36.1677 53.169 35.5051 53.169C34.8331 53.169 34.2964 53.379 33.8951 53.799C33.5031 54.219 33.3071 54.8303 33.3071 55.633V59.875H32.0331V52.203H33.3071V53.295C33.5591 52.903 33.8997 52.5997 34.3291 52.385C34.7677 52.1703 35.2484 52.063 35.7711 52.063Z" fill="#4F6D7A"/>
<path d="M31 5C36.5695 5 41.911 7.21249 45.8492 11.1508C49.7875 15.089 52 20.4305 52 26C52 31.5695 49.7875 36.911 45.8492 40.8492C41.911 44.7875 36.5695 47 31 47C25.4305 47 20.089 44.7875 16.1508 40.8492C12.2125 36.911 10 31.5695 10 26C10 20.4305 12.2125 15.089 16.1508 11.1508C20.089 7.21249 25.4305 5 31 5V5ZM31 44C35.7739 44 40.3523 42.1036 43.7279 38.7279C47.1036 35.3523 49 30.7739 49 26C49 21.2261 47.1036 16.6477 43.7279 13.2721C40.3523 9.89642 35.7739 8 31 8C26.2261 8 21.6477 9.89642 18.2721 13.2721C14.8964 16.6477 13 21.2261 13 26C13 30.7739 14.8964 35.3523 18.2721 38.7279C21.6477 42.1036 26.2261 44 31 44V44ZM28.75 32.393L38.341 26L28.75 19.607V32.393ZM29.248 16.331L40.942 24.128C41.2502 24.3335 41.5028 24.6118 41.6776 24.9384C41.8523 25.265 41.9438 25.6296 41.9438 26C41.9438 26.3704 41.8523 26.735 41.6776 27.0616C41.5028 27.3882 41.2502 27.6665 40.942 27.872L29.248 35.669C28.9092 35.8949 28.5154 36.0246 28.1086 36.0442C27.7019 36.0639 27.2974 35.9728 26.9384 35.7806C26.5793 35.5885 26.2791 35.3025 26.0699 34.9531C25.8606 34.6038 25.75 34.2042 25.75 33.797V18.2C25.75 17.7928 25.8606 17.3932 26.0699 17.0439C26.2791 16.6945 26.5793 16.4085 26.9384 16.2164C27.2974 16.0242 27.7019 15.9331 28.1086 15.9528C28.5154 15.9724 28.9092 16.1021 29.248 16.328V16.331Z" fill="#4F6D7A"/>
</svg>
