<svg width="62" height="66" viewBox="0 0 62 66" fill="none" xmlns="http://www.w3.org/2000/svg">
<rect width="62" height="66" rx="6" fill="white" fill-opacity="0.4"/>
<path d="M14.602 53.136C14.602 52.352 14.7607 51.666 15.078 51.078C15.3953 50.4807 15.8293 50.0187 16.38 49.692C16.94 49.3653 17.5653 49.202 18.256 49.202C18.8533 49.202 19.4087 49.342 19.922 49.622C20.4353 49.8927 20.8273 50.252 21.098 50.7V46.64H22.386V57H21.098V55.558C20.846 56.0153 20.4727 56.3933 19.978 56.692C19.4833 56.9813 18.9047 57.126 18.242 57.126C17.5607 57.126 16.94 56.958 16.38 56.622C15.8293 56.286 15.3953 55.8147 15.078 55.208C14.7607 54.6013 14.602 53.9107 14.602 53.136ZM21.098 53.15C21.098 52.5713 20.9813 52.0673 20.748 51.638C20.5147 51.2087 20.1973 50.882 19.796 50.658C19.404 50.4247 18.97 50.308 18.494 50.308C18.018 50.308 17.584 50.42 17.192 50.644C16.8 50.868 16.4873 51.1947 16.254 51.624C16.0207 52.0533 15.904 52.5573 15.904 53.136C15.904 53.724 16.0207 54.2373 16.254 54.676C16.4873 55.1053 16.8 55.4367 17.192 55.67C17.584 55.894 18.018 56.006 18.494 56.006C18.97 56.006 19.404 55.894 19.796 55.67C20.1973 55.4367 20.5147 55.1053 20.748 54.676C20.9813 54.2373 21.098 53.7287 21.098 53.15ZM24.0629 53.136C24.0629 52.352 24.2216 51.666 24.5389 51.078C24.8563 50.4807 25.2903 50.0187 25.8409 49.692C26.4009 49.3653 27.0216 49.202 27.7029 49.202C28.3749 49.202 28.9583 49.3467 29.4529 49.636C29.9476 49.9253 30.3163 50.2893 30.5589 50.728V49.328H31.8469V57H30.5589V55.572C30.3069 56.02 29.9289 56.3933 29.4249 56.692C28.9303 56.9813 28.3516 57.126 27.6889 57.126C27.0076 57.126 26.3916 56.958 25.8409 56.622C25.2903 56.286 24.8563 55.8147 24.5389 55.208C24.2216 54.6013 24.0629 53.9107 24.0629 53.136ZM30.5589 53.15C30.5589 52.5713 30.4423 52.0673 30.2089 51.638C29.9756 51.2087 29.6583 50.882 29.2569 50.658C28.8649 50.4247 28.4309 50.308 27.9549 50.308C27.4789 50.308 27.0449 50.42 26.6529 50.644C26.2609 50.868 25.9483 51.1947 25.7149 51.624C25.4816 52.0533 25.3649 52.5573 25.3649 53.136C25.3649 53.724 25.4816 54.2373 25.7149 54.676C25.9483 55.1053 26.2609 55.4367 26.6529 55.67C27.0449 55.894 27.4789 56.006 27.9549 56.006C28.4309 56.006 28.8649 55.894 29.2569 55.67C29.6583 55.4367 29.9756 55.1053 30.2089 54.676C30.4423 54.2373 30.5589 53.7287 30.5589 53.15ZM35.2739 50.574C35.4979 50.1353 35.8152 49.7947 36.2259 49.552C36.6459 49.3093 37.1545 49.188 37.7519 49.188V50.504H37.4159C35.9879 50.504 35.2739 51.2787 35.2739 52.828V57H33.9999V49.328H35.2739V50.574ZM43.5065 57L40.4965 53.612V57H39.2225V46.64H40.4965V52.73L43.4505 49.328H45.2285L41.6165 53.15L45.2425 57H43.5065Z" fill="#4F6D7A"/>
<path d="M31.3909 39.7818C36.1258 39.7818 40.4681 37.6293 43.3456 34.0839C45.0452 31.9898 43.1918 28.9302 40.565 29.4305C35.6142 30.3734 31.0496 26.5887 31.0496 21.5672C31.0496 18.6559 32.6164 16.0185 35.1038 14.603C37.4332 13.2774 36.8472 9.74598 34.2007 9.25714C33.2738 9.08622 32.3334 9.00015 31.3909 9C22.8922 9 16 15.8883 16 24.3909C16 32.8896 22.8884 39.7818 31.3909 39.7818ZM31.3909 11.8858C32.1716 11.8858 32.9354 11.958 33.6765 12.0949C30.3843 13.9684 28.1638 17.5083 28.1638 21.5672C28.1638 28.4118 34.3948 33.5432 41.1049 32.2653C38.8122 35.0903 35.3127 36.896 31.3909 36.896C24.4845 36.896 18.8858 31.2973 18.8858 24.3909C18.8858 17.4845 24.4845 11.8858 31.3909 11.8858Z" fill="#4F6D7A"/>
</svg>
