<svg width="62" height="66" viewBox="0 0 62 66" fill="none" xmlns="http://www.w3.org/2000/svg">
<rect width="62" height="66" rx="6" fill="black" fill-opacity="0.7"/>
<path d="M8.2 53.378H6.59V60H5.316V53.378H4.322V52.328H5.316V51.782C5.316 50.9233 5.53533 50.298 5.974 49.906C6.422 49.5047 7.136 49.304 8.116 49.304V50.368C7.556 50.368 7.15933 50.48 6.926 50.704C6.702 50.9187 6.59 51.278 6.59 51.782V52.328H8.2V53.378ZM13.0314 60.126C12.3128 60.126 11.6594 59.9627 11.0714 59.636C10.4928 59.3093 10.0354 58.8473 9.69942 58.25C9.37276 57.6433 9.20942 56.9433 9.20942 56.15C9.20942 55.366 9.37742 54.6753 9.71342 54.078C10.0588 53.4713 10.5254 53.0093 11.1134 52.692C11.7014 52.3653 12.3594 52.202 13.0874 52.202C13.8154 52.202 14.4734 52.3653 15.0614 52.692C15.6494 53.0093 16.1114 53.4667 16.4474 54.064C16.7928 54.6613 16.9654 55.3567 16.9654 56.15C16.9654 56.9433 16.7881 57.6433 16.4334 58.25C16.0881 58.8473 15.6168 59.3093 15.0194 59.636C14.4221 59.9627 13.7594 60.126 13.0314 60.126ZM13.0314 59.006C13.4888 59.006 13.9181 58.8987 14.3194 58.684C14.7208 58.4693 15.0428 58.1473 15.2854 57.718C15.5374 57.2887 15.6634 56.766 15.6634 56.15C15.6634 55.534 15.5421 55.0113 15.2994 54.582C15.0568 54.1527 14.7394 53.8353 14.3474 53.63C13.9554 53.4153 13.5308 53.308 13.0734 53.308C12.6068 53.308 12.1774 53.4153 11.7854 53.63C11.4028 53.8353 11.0948 54.1527 10.8614 54.582C10.6281 55.0113 10.5114 55.534 10.5114 56.15C10.5114 56.7753 10.6234 57.3027 10.8474 57.732C11.0808 58.1613 11.3888 58.4833 11.7714 58.698C12.1541 58.9033 12.5741 59.006 13.0314 59.006ZM19.9145 53.574C20.1385 53.1353 20.4558 52.7947 20.8665 52.552C21.2865 52.3093 21.7952 52.188 22.3925 52.188V53.504H22.0565C20.6285 53.504 19.9145 54.2787 19.9145 55.828V60H18.6405V52.328H19.9145V53.574ZM34.0832 52.328L31.6892 60H30.3732L28.5252 53.91L26.6772 60H25.3612L22.9532 52.328H24.2552L26.0192 58.768L27.9232 52.328H29.2252L31.0872 58.782L32.8232 52.328H34.0832ZM34.8715 56.136C34.8715 55.352 35.0302 54.666 35.3475 54.078C35.6649 53.4807 36.0989 53.0187 36.6495 52.692C37.2095 52.3653 37.8302 52.202 38.5115 52.202C39.1835 52.202 39.7669 52.3467 40.2615 52.636C40.7562 52.9253 41.1249 53.2893 41.3675 53.728V52.328H42.6555V60H41.3675V58.572C41.1155 59.02 40.7375 59.3933 40.2335 59.692C39.7389 59.9813 39.1602 60.126 38.4975 60.126C37.8162 60.126 37.2002 59.958 36.6495 59.622C36.0989 59.286 35.6649 58.8147 35.3475 58.208C35.0302 57.6013 34.8715 56.9107 34.8715 56.136ZM41.3675 56.15C41.3675 55.5713 41.2509 55.0673 41.0175 54.638C40.7842 54.2087 40.4669 53.882 40.0655 53.658C39.6735 53.4247 39.2395 53.308 38.7635 53.308C38.2875 53.308 37.8535 53.42 37.4615 53.644C37.0695 53.868 36.7569 54.1947 36.5235 54.624C36.2902 55.0533 36.1735 55.5573 36.1735 56.136C36.1735 56.724 36.2902 57.2373 36.5235 57.676C36.7569 58.1053 37.0695 58.4367 37.4615 58.67C37.8535 58.894 38.2875 59.006 38.7635 59.006C39.2395 59.006 39.6735 58.894 40.0655 58.67C40.4669 58.4367 40.7842 58.1053 41.0175 57.676C41.2509 57.2373 41.3675 56.7287 41.3675 56.15ZM46.0825 53.574C46.3065 53.1353 46.6238 52.7947 47.0345 52.552C47.4545 52.3093 47.9631 52.188 48.5605 52.188V53.504H48.2245C46.7965 53.504 46.0825 54.2787 46.0825 55.828V60H44.8085V52.328H46.0825V53.574ZM49.5551 56.136C49.5551 55.352 49.7138 54.666 50.0311 54.078C50.3485 53.4807 50.7825 53.0187 51.3331 52.692C51.8931 52.3653 52.5185 52.202 53.2091 52.202C53.8065 52.202 54.3618 52.342 54.8751 52.622C55.3885 52.8927 55.7805 53.252 56.0511 53.7V49.64H57.3391V60H56.0511V58.558C55.7991 59.0153 55.4258 59.3933 54.9311 59.692C54.4365 59.9813 53.8578 60.126 53.1951 60.126C52.5138 60.126 51.8931 59.958 51.3331 59.622C50.7825 59.286 50.3485 58.8147 50.0311 58.208C49.7138 57.6013 49.5551 56.9107 49.5551 56.136ZM56.0511 56.15C56.0511 55.5713 55.9345 55.0673 55.7011 54.638C55.4678 54.2087 55.1505 53.882 54.7491 53.658C54.3571 53.4247 53.9231 53.308 53.4471 53.308C52.9711 53.308 52.5371 53.42 52.1451 53.644C51.7531 53.868 51.4405 54.1947 51.2071 54.624C50.9738 55.0533 50.8571 55.5573 50.8571 56.136C50.8571 56.724 50.9738 57.2373 51.2071 57.676C51.4405 58.1053 51.7531 58.4367 52.1451 58.67C52.5371 58.894 52.9711 59.006 53.4471 59.006C53.9231 59.006 54.3571 58.894 54.7491 58.67C55.1505 58.4367 55.4678 58.1053 55.7011 57.676C55.9345 57.2373 56.0511 56.7287 56.0511 56.15Z" fill="#C0D6DF"/>
<path d="M34.8 20.4L35.4944 19.1848C35.2815 19.0632 35.0404 18.9996 34.7953 19.0005C34.5501 19.0013 34.3095 19.0665 34.0974 19.1895C33.8853 19.3126 33.7093 19.4891 33.5869 19.7016C33.4645 19.914 33.4001 20.1548 33.4 20.4H34.8ZM34.8 31.6H33.4C33.4001 31.8452 33.4645 32.086 33.5869 32.2984C33.7093 32.5109 33.8853 32.6874 34.0974 32.8105C34.3095 32.9335 34.5501 32.9987 34.7953 32.9995C35.0404 33.0004 35.2815 32.9368 35.4944 32.8152L34.8 31.6ZM44.6 26L45.2944 27.2152C45.5085 27.0927 45.6865 26.9158 45.8103 26.7024C45.934 26.489 45.9992 26.2467 45.9992 26C45.9992 25.7533 45.934 25.511 45.8103 25.2976C45.6865 25.0842 45.5085 24.9073 45.2944 24.7848L44.6 26ZM23.6 20.4L24.2944 19.1848C24.0815 19.0632 23.8404 18.9996 23.5953 19.0005C23.3501 19.0013 23.1095 19.0665 22.8974 19.1895C22.6853 19.3126 22.5093 19.4891 22.3869 19.7016C22.2645 19.914 22.2001 20.1548 22.2 20.4H23.6ZM23.6 31.6H22.2C22.2001 31.8452 22.2645 32.086 22.3869 32.2984C22.5093 32.5109 22.6853 32.6874 22.8974 32.8105C23.1095 32.9335 23.3501 32.9987 23.5953 32.9995C23.8404 33.0004 24.0815 32.9368 24.2944 32.8152L23.6 31.6ZM33.4 26L34.0944 27.2152C34.3085 27.0927 34.4865 26.9158 34.6103 26.7024C34.734 26.489 34.7992 26.2467 34.7992 26C34.7992 25.7533 34.734 25.511 34.6103 25.2976C34.4865 25.0842 34.3085 24.9073 34.0944 24.7848L33.4 26ZM32 44.2C27.1731 44.2 22.5438 42.2825 19.1307 38.8693C15.7175 35.4562 13.8 30.8269 13.8 26H11C11 31.5695 13.2125 36.911 17.1508 40.8492C21.089 44.7875 26.4305 47 32 47V44.2ZM50.2 26C50.2 28.3901 49.7292 30.7567 48.8146 32.9648C47.9 35.173 46.5594 37.1793 44.8693 38.8693C43.1793 40.5594 41.173 41.9 38.9648 42.8146C36.7567 43.7292 34.3901 44.2 32 44.2V47C37.5695 47 42.911 44.7875 46.8492 40.8492C50.7875 36.911 53 31.5695 53 26H50.2ZM32 7.8C34.3901 7.8 36.7567 8.27076 38.9648 9.18539C41.173 10.1 43.1793 11.4406 44.8693 13.1307C46.5594 14.8207 47.9 16.827 48.8146 19.0352C49.7292 21.2433 50.2 23.6099 50.2 26H53C53 20.4305 50.7875 15.089 46.8492 11.1508C42.911 7.21249 37.5695 5 32 5V7.8ZM32 5C26.4305 5 21.089 7.21249 17.1508 11.1508C13.2125 15.089 11 20.4305 11 26H13.8C13.8 21.1731 15.7175 16.5438 19.1307 13.1307C22.5438 9.71749 27.1731 7.8 32 7.8V5ZM33.4 20.4V31.6H36.2V20.4H33.4ZM35.4944 32.8152L45.2944 27.2152L43.9056 24.7848L34.1056 30.3848L35.4944 32.8152ZM45.2944 24.7848L35.4944 19.1848L34.1056 21.6152L43.9056 27.2152L45.2944 24.7848ZM22.2 20.4V31.6H25V20.4H22.2ZM24.2944 32.8152L34.0944 27.2152L32.7056 24.7848L22.9056 30.3848L24.2944 32.8152V32.8152ZM34.0944 24.7848L24.2944 19.1848L22.9056 21.6152L32.7056 27.2152L34.0944 24.7848Z" fill="#C0D6DF"/>
</svg>
