<svg width="62" height="66" viewBox="0 0 62 66" fill="none" xmlns="http://www.w3.org/2000/svg">
<rect width="62" height="66" rx="6" fill="black" fill-opacity="0.7"/>
<path d="M7.352 53.574C7.576 53.1353 7.89333 52.7947 8.304 52.552C8.724 52.3093 9.23267 52.188 9.83 52.188V53.504H9.494C8.066 53.504 7.352 54.2787 7.352 55.828V60H6.078V52.328H7.352V53.574ZM18.3007 55.87C18.3007 56.1127 18.2867 56.3693 18.2587 56.64H12.1267C12.1733 57.396 12.43 57.9887 12.8967 58.418C13.3727 58.838 13.9467 59.048 14.6187 59.048C15.1693 59.048 15.6267 58.922 15.9907 58.67C16.364 58.4087 16.6253 58.0633 16.7747 57.634H18.1467C17.9413 58.3713 17.5307 58.9733 16.9147 59.44C16.2987 59.8973 15.5333 60.126 14.6187 60.126C13.8907 60.126 13.2373 59.9627 12.6587 59.636C12.0893 59.3093 11.6413 58.8473 11.3147 58.25C10.988 57.6433 10.8247 56.9433 10.8247 56.15C10.8247 55.3567 10.9833 54.6613 11.3007 54.064C11.618 53.4667 12.0613 53.0093 12.6307 52.692C13.2093 52.3653 13.872 52.202 14.6187 52.202C15.3467 52.202 15.9907 52.3607 16.5507 52.678C17.1107 52.9953 17.54 53.434 17.8387 53.994C18.1467 54.5447 18.3007 55.17 18.3007 55.87ZM16.9847 55.604C16.9847 55.1187 16.8773 54.7033 16.6627 54.358C16.448 54.0033 16.154 53.7373 15.7807 53.56C15.4167 53.3733 15.0107 53.28 14.5627 53.28C13.9187 53.28 13.368 53.4853 12.9107 53.896C12.4627 54.3067 12.206 54.876 12.1407 55.604H16.9847ZM22.8383 58.824L25.2183 52.328H26.5763L23.5663 60H22.0823L19.0723 52.328H20.4443L22.8383 58.824ZM34.83 55.87C34.83 56.1127 34.816 56.3693 34.788 56.64H28.656C28.7026 57.396 28.9593 57.9887 29.426 58.418C29.902 58.838 30.476 59.048 31.148 59.048C31.6986 59.048 32.156 58.922 32.52 58.67C32.8933 58.4087 33.1546 58.0633 33.304 57.634H34.676C34.4706 58.3713 34.06 58.9733 33.444 59.44C32.828 59.8973 32.0626 60.126 31.148 60.126C30.42 60.126 29.7666 59.9627 29.188 59.636C28.6186 59.3093 28.1706 58.8473 27.844 58.25C27.5173 57.6433 27.354 56.9433 27.354 56.15C27.354 55.3567 27.5126 54.6613 27.83 54.064C28.1473 53.4667 28.5906 53.0093 29.16 52.692C29.7386 52.3653 30.4013 52.202 31.148 52.202C31.876 52.202 32.52 52.3607 33.08 52.678C33.64 52.9953 34.0693 53.434 34.368 53.994C34.676 54.5447 34.83 55.17 34.83 55.87ZM33.514 55.604C33.514 55.1187 33.4066 54.7033 33.192 54.358C32.9773 54.0033 32.6833 53.7373 32.31 53.56C31.946 53.3733 31.54 53.28 31.092 53.28C30.448 53.28 29.8973 53.4853 29.44 53.896C28.992 54.3067 28.7353 54.876 28.67 55.604H33.514ZM37.7856 53.574C38.0096 53.1353 38.3269 52.7947 38.7376 52.552C39.1576 52.3093 39.6663 52.188 40.2636 52.188V53.504H39.9276C38.4996 53.504 37.7856 54.2787 37.7856 55.828V60H36.5116V52.328H37.7856V53.574ZM44.4503 60.126C43.8623 60.126 43.3349 60.028 42.8683 59.832C42.4016 59.6267 42.0329 59.3467 41.7623 58.992C41.4916 58.628 41.3423 58.2127 41.3143 57.746H42.6303C42.6676 58.1287 42.8449 58.4413 43.1623 58.684C43.4889 58.9267 43.9136 59.048 44.4363 59.048C44.9216 59.048 45.3043 58.9407 45.5843 58.726C45.8643 58.5113 46.0043 58.2407 46.0043 57.914C46.0043 57.578 45.8549 57.3307 45.5563 57.172C45.2576 57.004 44.7956 56.8407 44.1703 56.682C43.6009 56.5327 43.1343 56.3833 42.7703 56.234C42.4156 56.0753 42.1076 55.8467 41.8463 55.548C41.5943 55.24 41.4683 54.8387 41.4683 54.344C41.4683 53.952 41.5849 53.5927 41.8183 53.266C42.0516 52.9393 42.3829 52.6827 42.8123 52.496C43.2416 52.3 43.7316 52.202 44.2823 52.202C45.1316 52.202 45.8176 52.4167 46.3403 52.846C46.8629 53.2753 47.1429 53.8633 47.1803 54.61H45.9063C45.8783 54.2087 45.7149 53.8867 45.4163 53.644C45.1269 53.4013 44.7349 53.28 44.2403 53.28C43.7829 53.28 43.4189 53.378 43.1483 53.574C42.8776 53.77 42.7423 54.0267 42.7423 54.344C42.7423 54.596 42.8216 54.806 42.9803 54.974C43.1483 55.1327 43.3536 55.2633 43.5963 55.366C43.8483 55.4593 44.1936 55.5667 44.6323 55.688C45.1829 55.8373 45.6309 55.9867 45.9763 56.136C46.3216 56.276 46.6156 56.4907 46.8583 56.78C47.1103 57.0693 47.2409 57.4473 47.2503 57.914C47.2503 58.334 47.1336 58.712 46.9003 59.048C46.6669 59.384 46.3356 59.65 45.9063 59.846C45.4863 60.0327 45.0009 60.126 44.4503 60.126ZM56.0487 55.87C56.0487 56.1127 56.0347 56.3693 56.0067 56.64H49.8747C49.9214 57.396 50.178 57.9887 50.6447 58.418C51.1207 58.838 51.6947 59.048 52.3667 59.048C52.9174 59.048 53.3747 58.922 53.7387 58.67C54.112 58.4087 54.3734 58.0633 54.5227 57.634H55.8947C55.6894 58.3713 55.2787 58.9733 54.6627 59.44C54.0467 59.8973 53.2814 60.126 52.3667 60.126C51.6387 60.126 50.9854 59.9627 50.4067 59.636C49.8374 59.3093 49.3894 58.8473 49.0627 58.25C48.736 57.6433 48.5727 56.9433 48.5727 56.15C48.5727 55.3567 48.7314 54.6613 49.0487 54.064C49.366 53.4667 49.8094 53.0093 50.3787 52.692C50.9574 52.3653 51.62 52.202 52.3667 52.202C53.0947 52.202 53.7387 52.3607 54.2987 52.678C54.8587 52.9953 55.288 53.434 55.5867 53.994C55.8947 54.5447 56.0487 55.17 56.0487 55.87ZM54.7327 55.604C54.7327 55.1187 54.6254 54.7033 54.4107 54.358C54.196 54.0033 53.902 53.7373 53.5287 53.56C53.1647 53.3733 52.7587 53.28 52.3107 53.28C51.6667 53.28 51.116 53.4853 50.6587 53.896C50.2107 54.3067 49.954 54.876 49.8887 55.604H54.7327Z" fill="#C0D6DF"/>
<path d="M28.2 20.4L27.5056 19.1848C27.7185 19.0632 27.9596 18.9996 28.2047 19.0005C28.4499 19.0013 28.6905 19.0665 28.9026 19.1895C29.1147 19.3126 29.2907 19.4891 29.4131 19.7016C29.5355 19.914 29.5999 20.1548 29.6 20.4H28.2ZM28.2 31.6H29.6C29.5999 31.8452 29.5355 32.086 29.4131 32.2984C29.2907 32.5109 29.1147 32.6874 28.9026 32.8105C28.6905 32.9335 28.4499 32.9987 28.2047 32.9995C27.9596 33.0004 27.7185 32.9368 27.5056 32.8152L28.2 31.6ZM18.4 26L17.7056 27.2152C17.4915 27.0927 17.3135 26.9158 17.1897 26.7024C17.066 26.489 17.0008 26.2467 17.0008 26C17.0008 25.7533 17.066 25.511 17.1897 25.2976C17.3135 25.0842 17.4915 24.9073 17.7056 24.7848L18.4 26ZM39.4 20.4L38.7056 19.1848C38.9185 19.0632 39.1596 18.9996 39.4047 19.0005C39.6499 19.0013 39.8905 19.0665 40.1026 19.1895C40.3147 19.3126 40.4907 19.4891 40.6131 19.7016C40.7355 19.914 40.7999 20.1548 40.8 20.4H39.4ZM39.4 31.6H40.8C40.7999 31.8452 40.7355 32.086 40.6131 32.2984C40.4907 32.5109 40.3147 32.6874 40.1026 32.8105C39.8905 32.9335 39.6499 32.9987 39.4047 32.9995C39.1596 33.0004 38.9185 32.9368 38.7056 32.8152L39.4 31.6ZM29.6 26L28.9056 27.2152C28.6915 27.0927 28.5135 26.9158 28.3897 26.7024C28.266 26.489 28.2008 26.2467 28.2008 26C28.2008 25.7533 28.266 25.511 28.3897 25.2976C28.5135 25.0842 28.6915 24.9073 28.9056 24.7848L29.6 26ZM31 44.2C35.8269 44.2 40.4562 42.2825 43.8693 38.8693C47.2825 35.4562 49.2 30.8269 49.2 26H52C52 31.5695 49.7875 36.911 45.8492 40.8492C41.911 44.7875 36.5695 47 31 47V44.2ZM12.8 26C12.8 28.3901 13.2708 30.7567 14.1854 32.9648C15.1 35.173 16.4406 37.1793 18.1307 38.8693C19.8207 40.5594 21.827 41.9 24.0352 42.8146C26.2433 43.7292 28.6099 44.2 31 44.2V47C25.4305 47 20.089 44.7875 16.1508 40.8492C12.2125 36.911 10 31.5695 10 26H12.8ZM31 7.8C28.6099 7.8 26.2433 8.27076 24.0352 9.18539C21.827 10.1 19.8207 11.4406 18.1307 13.1307C16.4406 14.8207 15.1 16.827 14.1854 19.0352C13.2708 21.2433 12.8 23.6099 12.8 26H10C10 20.4305 12.2125 15.089 16.1508 11.1508C20.089 7.21249 25.4305 5 31 5V7.8ZM31 5C36.5695 5 41.911 7.21249 45.8492 11.1508C49.7875 15.089 52 20.4305 52 26H49.2C49.2 21.1731 47.2825 16.5438 43.8693 13.1307C40.4562 9.71749 35.8269 7.8 31 7.8V5ZM29.6 20.4V31.6H26.8V20.4H29.6ZM27.5056 32.8152L17.7056 27.2152L19.0944 24.7848L28.8944 30.3848L27.5056 32.8152ZM17.7056 24.7848L27.5056 19.1848L28.8944 21.6152L19.0944 27.2152L17.7056 24.7848ZM40.8 20.4V31.6H38V20.4H40.8ZM38.7056 32.8152L28.9056 27.2152L30.2944 24.7848L40.0944 30.3848L38.7056 32.8152V32.8152ZM28.9056 24.7848L38.7056 19.1848L40.0944 21.6152L30.2944 27.2152L28.9056 24.7848Z" fill="#C0D6DF"/>
</svg>
