<svg width="62" height="66" viewBox="0 0 62 66" fill="none" xmlns="http://www.w3.org/2000/svg">
<rect width="62" height="66" rx="6" fill="black" fill-opacity="0.7"/>
<path d="M20.794 60.126C20.206 60.126 19.6787 60.028 19.212 59.832C18.7453 59.6267 18.3767 59.3467 18.106 58.992C17.8353 58.628 17.686 58.2127 17.658 57.746H18.974C19.0113 58.1287 19.1887 58.4413 19.506 58.684C19.8327 58.9267 20.2573 59.048 20.78 59.048C21.2653 59.048 21.648 58.9407 21.928 58.726C22.208 58.5113 22.348 58.2407 22.348 57.914C22.348 57.578 22.1987 57.3307 21.9 57.172C21.6013 57.004 21.1393 56.8407 20.514 56.682C19.9447 56.5327 19.478 56.3833 19.114 56.234C18.7593 56.0753 18.4513 55.8467 18.19 55.548C17.938 55.24 17.812 54.8387 17.812 54.344C17.812 53.952 17.9287 53.5927 18.162 53.266C18.3953 52.9393 18.7267 52.6827 19.156 52.496C19.5853 52.3 20.0753 52.202 20.626 52.202C21.4753 52.202 22.1613 52.4167 22.684 52.846C23.2067 53.2753 23.4867 53.8633 23.524 54.61H22.25C22.222 54.2087 22.0587 53.8867 21.76 53.644C21.4707 53.4013 21.0787 53.28 20.584 53.28C20.1267 53.28 19.7627 53.378 19.492 53.574C19.2213 53.77 19.086 54.0267 19.086 54.344C19.086 54.596 19.1653 54.806 19.324 54.974C19.492 55.1327 19.6973 55.2633 19.94 55.366C20.192 55.4593 20.5373 55.5667 20.976 55.688C21.5267 55.8373 21.9747 55.9867 22.32 56.136C22.6653 56.276 22.9593 56.4907 23.202 56.78C23.454 57.0693 23.5847 57.4473 23.594 57.914C23.594 58.334 23.4773 58.712 23.244 59.048C23.0107 59.384 22.6793 59.65 22.25 59.846C21.83 60.0327 21.3447 60.126 20.794 60.126ZM26.9465 53.378V57.9C26.9465 58.2733 27.0258 58.5393 27.1845 58.698C27.3431 58.8473 27.6185 58.922 28.0105 58.922H28.9485V60H27.8005C27.0911 60 26.5591 59.8367 26.2045 59.51C25.8498 59.1833 25.6725 58.6467 25.6725 57.9V53.378H24.6785V52.328H25.6725V50.396H26.9465V52.328H28.9485V53.378H26.9465ZM33.8381 60.126C33.1194 60.126 32.4661 59.9627 31.8781 59.636C31.2994 59.3093 30.8421 58.8473 30.5061 58.25C30.1794 57.6433 30.0161 56.9433 30.0161 56.15C30.0161 55.366 30.1841 54.6753 30.5201 54.078C30.8654 53.4713 31.3321 53.0093 31.9201 52.692C32.5081 52.3653 33.1661 52.202 33.8941 52.202C34.6221 52.202 35.2801 52.3653 35.8681 52.692C36.4561 53.0093 36.9181 53.4667 37.2541 54.064C37.5994 54.6613 37.7721 55.3567 37.7721 56.15C37.7721 56.9433 37.5947 57.6433 37.2401 58.25C36.8947 58.8473 36.4234 59.3093 35.8261 59.636C35.2287 59.9627 34.5661 60.126 33.8381 60.126ZM33.8381 59.006C34.2954 59.006 34.7247 58.8987 35.1261 58.684C35.5274 58.4693 35.8494 58.1473 36.0921 57.718C36.3441 57.2887 36.4701 56.766 36.4701 56.15C36.4701 55.534 36.3487 55.0113 36.1061 54.582C35.8634 54.1527 35.5461 53.8353 35.1541 53.63C34.7621 53.4153 34.3374 53.308 33.8801 53.308C33.4134 53.308 32.9841 53.4153 32.5921 53.63C32.2094 53.8353 31.9014 54.1527 31.6681 54.582C31.4347 55.0113 31.3181 55.534 31.3181 56.15C31.3181 56.7753 31.4301 57.3027 31.6541 57.732C31.8874 58.1613 32.1954 58.4833 32.5781 58.698C32.9607 58.9033 33.3807 59.006 33.8381 59.006ZM40.7211 53.742C40.9731 53.3033 41.3465 52.9393 41.8411 52.65C42.3451 52.3513 42.9285 52.202 43.5911 52.202C44.2725 52.202 44.8885 52.3653 45.4391 52.692C45.9991 53.0187 46.4378 53.4807 46.7551 54.078C47.0725 54.666 47.2311 55.352 47.2311 56.136C47.2311 56.9107 47.0725 57.6013 46.7551 58.208C46.4378 58.8147 45.9991 59.286 45.4391 59.622C44.8885 59.958 44.2725 60.126 43.5911 60.126C42.9378 60.126 42.3591 59.9813 41.8551 59.692C41.3605 59.3933 40.9825 59.0247 40.7211 58.586V63.64H39.4471V52.328H40.7211V53.742ZM45.9291 56.136C45.9291 55.5573 45.8125 55.0533 45.5791 54.624C45.3458 54.1947 45.0285 53.868 44.6271 53.644C44.2351 53.42 43.8011 53.308 43.3251 53.308C42.8585 53.308 42.4245 53.4247 42.0231 53.658C41.6311 53.882 41.3138 54.2133 41.0711 54.652C40.8378 55.0813 40.7211 55.5807 40.7211 56.15C40.7211 56.7287 40.8378 57.2373 41.0711 57.676C41.3138 58.1053 41.6311 58.4367 42.0231 58.67C42.4245 58.894 42.8585 59.006 43.3251 59.006C43.8011 59.006 44.2351 58.894 44.6271 58.67C45.0285 58.4367 45.3458 58.1053 45.5791 57.676C45.8125 57.2373 45.9291 56.724 45.9291 56.136Z" fill="#C0D6DF"/>
<path d="M32 45C43.0457 45 52 36.0457 52 25C52 13.9543 43.0457 5 32 5C20.9543 5 12 13.9543 12 25C12 36.0457 20.9543 45 32 45Z" stroke="#C0D6DF" stroke-width="3" stroke-linecap="round" stroke-linejoin="round"/>
<path d="M28 31V19M36 31V19" stroke="#C0D6DF" stroke-width="3" stroke-linecap="round" stroke-linejoin="round"/>
</svg>
