<svg width="62" height="66" viewBox="0 0 62 66" fill="none" xmlns="http://www.w3.org/2000/svg">
<rect width="62" height="66" rx="6" fill="white"/>
<path d="M26.424 60.126C25.7053 60.126 25.052 59.9627 24.464 59.636C23.8853 59.3093 23.428 58.8473 23.092 58.25C22.7653 57.6433 22.602 56.9433 22.602 56.15C22.602 55.366 22.77 54.6753 23.106 54.078C23.4513 53.4713 23.918 53.0093 24.506 52.692C25.094 52.3653 25.752 52.202 26.48 52.202C27.208 52.202 27.866 52.3653 28.454 52.692C29.042 53.0093 29.504 53.4667 29.84 54.064C30.1853 54.6613 30.358 55.3567 30.358 56.15C30.358 56.9433 30.1807 57.6433 29.826 58.25C29.4807 58.8473 29.0093 59.3093 28.412 59.636C27.8147 59.9627 27.152 60.126 26.424 60.126ZM26.424 59.006C26.8813 59.006 27.3107 58.8987 27.712 58.684C28.1133 58.4693 28.4353 58.1473 28.678 57.718C28.93 57.2887 29.056 56.766 29.056 56.15C29.056 55.534 28.9347 55.0113 28.692 54.582C28.4493 54.1527 28.132 53.8353 27.74 53.63C27.348 53.4153 26.9233 53.308 26.466 53.308C25.9993 53.308 25.57 53.4153 25.178 53.63C24.7953 53.8353 24.4873 54.1527 24.254 54.582C24.0207 55.0113 23.904 55.534 23.904 56.15C23.904 56.7753 24.016 57.3027 24.24 57.732C24.4733 58.1613 24.7813 58.4833 25.164 58.698C25.5467 58.9033 25.9667 59.006 26.424 59.006ZM35.1551 53.378H33.5451V60H32.2711V53.378H31.2771V52.328H32.2711V51.782C32.2711 50.9233 32.4904 50.298 32.9291 49.906C33.3771 49.5047 34.0911 49.304 35.0711 49.304V50.368C34.5111 50.368 34.1144 50.48 33.8811 50.704C33.6571 50.9187 33.5451 51.278 33.5451 51.782V52.328H35.1551V53.378ZM39.7625 53.378H38.1525V60H36.8785V53.378H35.8845V52.328H36.8785V51.782C36.8785 50.9233 37.0978 50.298 37.5365 49.906C37.9845 49.5047 38.6985 49.304 39.6785 49.304V50.368C39.1185 50.368 38.7218 50.48 38.4885 50.704C38.2645 50.9187 38.1525 51.278 38.1525 51.782V52.328H39.7625V53.378Z" fill="#4F6D7A"/>
<path d="M31 45C42.0457 45 51 36.0457 51 25C51 13.9543 42.0457 5 31 5C19.9543 5 11 13.9543 11 25C11 36.0457 19.9543 45 31 45Z" stroke="#4F6D7A" stroke-width="3" stroke-linecap="round" stroke-linejoin="round"/>
<path d="M25 19H37V31H25V19Z" stroke="#4F6D7A" stroke-width="3" stroke-linecap="round" stroke-linejoin="round"/>
</svg>
