<svg width="48" height="48" viewBox="0 0 48 48" fill="none" xmlns="http://www.w3.org/2000/svg">
<path d="M48 0H8C3.58172 0 0 3.58172 0 8V40C0 44.4183 3.58172 48 8 48H48V0Z" fill="#4F6D7A"/>
<path d="M14.816 32.188C15.7493 32.188 16.5053 32.4727 17.084 33.042C17.6627 33.602 17.952 34.414 17.952 35.478V40H16.692V35.66C16.692 34.8947 16.5007 34.3113 16.118 33.91C15.7353 33.4993 15.2127 33.294 14.55 33.294C13.878 33.294 13.3413 33.504 12.94 33.924C12.548 34.344 12.352 34.9553 12.352 35.758V40H11.078V32.328H12.352V33.42C12.604 33.028 12.9447 32.7247 13.374 32.51C13.8127 32.2953 14.2933 32.188 14.816 32.188ZM27.0331 35.87C27.0331 36.1127 27.0191 36.3693 26.9911 36.64H20.8591C20.9057 37.396 21.1624 37.9887 21.6291 38.418C22.1051 38.838 22.6791 39.048 23.3511 39.048C23.9017 39.048 24.3591 38.922 24.7231 38.67C25.0964 38.4087 25.3577 38.0633 25.5071 37.634H26.8791C26.6737 38.3713 26.2631 38.9733 25.6471 39.44C25.0311 39.8973 24.2657 40.126 23.3511 40.126C22.6231 40.126 21.9697 39.9627 21.3911 39.636C20.8217 39.3093 20.3737 38.8473 20.0471 38.25C19.7204 37.6433 19.5571 36.9433 19.5571 36.15C19.5571 35.3567 19.7157 34.6613 20.0331 34.064C20.3504 33.4667 20.7937 33.0093 21.3631 32.692C21.9417 32.3653 22.6044 32.202 23.3511 32.202C24.0791 32.202 24.7231 32.3607 25.2831 32.678C25.8431 32.9953 26.2724 33.434 26.5711 33.994C26.8791 34.5447 27.0331 35.17 27.0331 35.87ZM25.7171 35.604C25.7171 35.1187 25.6097 34.7033 25.3951 34.358C25.1804 34.0033 24.8864 33.7373 24.5131 33.56C24.1491 33.3733 23.7431 33.28 23.2951 33.28C22.6511 33.28 22.1004 33.4853 21.6431 33.896C21.1951 34.3067 20.9384 34.876 20.8731 35.604H25.7171ZM32.7187 40L30.8987 37.144L29.1487 40H27.8187L30.2967 36.192L27.8187 32.328H29.2607L31.0807 35.17L32.8167 32.328H34.1467L31.6827 36.122L34.1607 40H32.7187ZM36.9679 33.378V37.9C36.9679 38.2733 37.0473 38.5393 37.2059 38.698C37.3646 38.8473 37.6399 38.922 38.0319 38.922H38.9699V40H37.8219C37.1126 40 36.5806 39.8367 36.2259 39.51C35.8713 39.1833 35.6939 38.6467 35.6939 37.9V33.378H34.6999V32.328H35.6939V30.396H36.9679V32.328H38.9699V33.378H36.9679Z" fill="#C0D6DF"/>
<path d="M26 21L29 18M29 18L26 15M29 18H21M34 18C34 16.8181 33.7672 15.6478 33.3149 14.5558C32.8626 13.4639 32.1997 12.4718 31.364 11.636C30.5282 10.8003 29.5361 10.1374 28.4442 9.68508C27.3522 9.23279 26.1819 9 25 9C23.8181 9 22.6478 9.23279 21.5558 9.68508C20.4639 10.1374 19.4718 10.8003 18.636 11.636C17.8003 12.4718 17.1374 13.4639 16.6851 14.5558C16.2328 15.6478 16 16.8181 16 18C16 20.3869 16.9482 22.6761 18.636 24.364C20.3239 26.0518 22.6131 27 25 27C27.3869 27 29.6761 26.0518 31.364 24.364C33.0518 22.6761 34 20.3869 34 18V18Z" stroke="#C0D6DF" stroke-width="2" stroke-linecap="round" stroke-linejoin="round"/>
</svg>
