<svg width="48" height="48" viewBox="0 0 48 48" fill="none" xmlns="http://www.w3.org/2000/svg">
<path d="M0 0H40C44.4183 0 48 3.58172 48 8V40C48 44.4183 44.4183 48 40 48H0V0Z" fill="#4F6D7A"/>
<path d="M8.352 33.742C8.604 33.3033 8.97733 32.9393 9.472 32.65C9.976 32.3513 10.5593 32.202 11.222 32.202C11.9033 32.202 12.5193 32.3653 13.07 32.692C13.63 33.0187 14.0687 33.4807 14.386 34.078C14.7033 34.666 14.862 35.352 14.862 36.136C14.862 36.9107 14.7033 37.6013 14.386 38.208C14.0687 38.8147 13.63 39.286 13.07 39.622C12.5193 39.958 11.9033 40.126 11.222 40.126C10.5687 40.126 9.99 39.9813 9.486 39.692C8.99133 39.3933 8.61333 39.0247 8.352 38.586V43.64H7.078V32.328H8.352V33.742ZM13.56 36.136C13.56 35.5573 13.4433 35.0533 13.21 34.624C12.9767 34.1947 12.6593 33.868 12.258 33.644C11.866 33.42 11.432 33.308 10.956 33.308C10.4893 33.308 10.0553 33.4247 9.654 33.658C9.262 33.882 8.94467 34.2133 8.702 34.652C8.46867 35.0813 8.352 35.5807 8.352 36.15C8.352 36.7287 8.46867 37.2373 8.702 37.676C8.94467 38.1053 9.262 38.4367 9.654 38.67C10.0553 38.894 10.4893 39.006 10.956 39.006C11.432 39.006 11.866 38.894 12.258 38.67C12.6593 38.4367 12.9767 38.1053 13.21 37.676C13.4433 37.2373 13.56 36.724 13.56 36.136ZM17.8129 33.574C18.0369 33.1353 18.3543 32.7947 18.7649 32.552C19.1849 32.3093 19.6936 32.188 20.2909 32.188V33.504H19.9549C18.5269 33.504 17.8129 34.2787 17.8129 35.828V40H16.5389V32.328H17.8129V33.574ZM28.7616 35.87C28.7616 36.1127 28.7476 36.3693 28.7196 36.64H22.5876C22.6343 37.396 22.8909 37.9887 23.3576 38.418C23.8336 38.838 24.4076 39.048 25.0796 39.048C25.6303 39.048 26.0876 38.922 26.4516 38.67C26.8249 38.4087 27.0863 38.0633 27.2356 37.634H28.6076C28.4023 38.3713 27.9916 38.9733 27.3756 39.44C26.7596 39.8973 25.9943 40.126 25.0796 40.126C24.3516 40.126 23.6983 39.9627 23.1196 39.636C22.5503 39.3093 22.1023 38.8473 21.7756 38.25C21.4489 37.6433 21.2856 36.9433 21.2856 36.15C21.2856 35.3567 21.4443 34.6613 21.7616 34.064C22.0789 33.4667 22.5223 33.0093 23.0916 32.692C23.6703 32.3653 24.3329 32.202 25.0796 32.202C25.8076 32.202 26.4516 32.3607 27.0116 32.678C27.5716 32.9953 28.0009 33.434 28.2996 33.994C28.6076 34.5447 28.7616 35.17 28.7616 35.87ZM27.4456 35.604C27.4456 35.1187 27.3383 34.7033 27.1236 34.358C26.9089 34.0033 26.6149 33.7373 26.2416 33.56C25.8776 33.3733 25.4716 33.28 25.0236 33.28C24.3796 33.28 23.8289 33.4853 23.3716 33.896C22.9236 34.3067 22.6669 34.876 22.6016 35.604H27.4456ZM33.2992 38.824L35.6792 32.328H37.0372L34.0272 40H32.5432L29.5332 32.328H30.9052L33.2992 38.824Z" fill="#C0D6DF"/>
<path d="M21 21L18 18M18 18L21 15M18 18H26M13 18C13 16.8181 13.2328 15.6478 13.6851 14.5558C14.1374 13.4639 14.8003 12.4718 15.636 11.636C16.4718 10.8003 17.4639 10.1374 18.5558 9.68508C19.6478 9.23279 20.8181 9 22 9C23.1819 9 24.3522 9.23279 25.4442 9.68508C26.5361 10.1374 27.5282 10.8003 28.364 11.636C29.1997 12.4718 29.8626 13.4639 30.3149 14.5558C30.7672 15.6478 31 16.8181 31 18C31 20.3869 30.0518 22.6761 28.364 24.364C26.6761 26.0518 24.3869 27 22 27C19.6131 27 17.3239 26.0518 15.636 24.364C13.9482 22.6761 13 20.3869 13 18V18Z" stroke="#C0D6DF" stroke-width="2" stroke-linecap="round" stroke-linejoin="round"/>
</svg>
