<svg width="173" height="68" viewBox="0 0 173 68" fill="none" xmlns="http://www.w3.org/2000/svg">
<rect width="173" height="68" rx="6" fill="black" fill-opacity="0.4"/>
<path d="M30.774 17.718C30.774 16.494 31.05 15.396 31.602 14.424C32.154 13.44 32.904 12.672 33.852 12.12C34.812 11.568 35.874 11.292 37.038 11.292C38.406 11.292 39.6 11.622 40.62 12.282C41.64 12.942 42.384 13.878 42.852 15.09H40.89C40.542 14.334 40.038 13.752 39.378 13.344C38.73 12.936 37.95 12.732 37.038 12.732C36.162 12.732 35.376 12.936 34.68 13.344C33.984 13.752 33.438 14.334 33.042 15.09C32.646 15.834 32.448 16.71 32.448 17.718C32.448 18.714 32.646 19.59 33.042 20.346C33.438 21.09 33.984 21.666 34.68 22.074C35.376 22.482 36.162 22.686 37.038 22.686C37.95 22.686 38.73 22.488 39.378 22.092C40.038 21.684 40.542 21.102 40.89 20.346H42.852C42.384 21.546 41.64 22.476 40.62 23.136C39.6 23.784 38.406 24.108 37.038 24.108C35.874 24.108 34.812 23.838 33.852 23.298C32.904 22.746 32.154 21.984 31.602 21.012C31.05 20.04 30.774 18.942 30.774 17.718ZM49.5923 24.162C48.6683 24.162 47.8283 23.952 47.0723 23.532C46.3283 23.112 45.7403 22.518 45.3083 21.75C44.8883 20.97 44.6783 20.07 44.6783 19.05C44.6783 18.042 44.8943 17.154 45.3263 16.386C45.7703 15.606 46.3703 15.012 47.1263 14.604C47.8823 14.184 48.7283 13.974 49.6643 13.974C50.6003 13.974 51.4463 14.184 52.2023 14.604C52.9583 15.012 53.5523 15.6 53.9843 16.368C54.4283 17.136 54.6503 18.03 54.6503 19.05C54.6503 20.07 54.4223 20.97 53.9663 21.75C53.5223 22.518 52.9163 23.112 52.1483 23.532C51.3803 23.952 50.5283 24.162 49.5923 24.162ZM49.5923 22.722C50.1803 22.722 50.7323 22.584 51.2483 22.308C51.7643 22.032 52.1783 21.618 52.4903 21.066C52.8143 20.514 52.9763 19.842 52.9763 19.05C52.9763 18.258 52.8203 17.586 52.5083 17.034C52.1963 16.482 51.7883 16.074 51.2843 15.81C50.7803 15.534 50.2343 15.396 49.6463 15.396C49.0463 15.396 48.4943 15.534 47.9903 15.81C47.4983 16.074 47.1023 16.482 46.8023 17.034C46.5023 17.586 46.3523 18.258 46.3523 19.05C46.3523 19.854 46.4963 20.532 46.7843 21.084C47.0843 21.636 47.4803 22.05 47.9723 22.326C48.4643 22.59 49.0043 22.722 49.5923 22.722ZM58.442 10.68V24H56.804V10.68H58.442ZM65.5357 24.162C64.6117 24.162 63.7717 23.952 63.0157 23.532C62.2717 23.112 61.6837 22.518 61.2517 21.75C60.8317 20.97 60.6217 20.07 60.6217 19.05C60.6217 18.042 60.8377 17.154 61.2697 16.386C61.7137 15.606 62.3137 15.012 63.0697 14.604C63.8257 14.184 64.6717 13.974 65.6077 13.974C66.5437 13.974 67.3897 14.184 68.1457 14.604C68.9017 15.012 69.4957 15.6 69.9277 16.368C70.3717 17.136 70.5937 18.03 70.5937 19.05C70.5937 20.07 70.3657 20.97 69.9097 21.75C69.4657 22.518 68.8597 23.112 68.0917 23.532C67.3237 23.952 66.4717 24.162 65.5357 24.162ZM65.5357 22.722C66.1237 22.722 66.6757 22.584 67.1917 22.308C67.7077 22.032 68.1217 21.618 68.4337 21.066C68.7577 20.514 68.9197 19.842 68.9197 19.05C68.9197 18.258 68.7637 17.586 68.4517 17.034C68.1397 16.482 67.7317 16.074 67.2277 15.81C66.7237 15.534 66.1777 15.396 65.5897 15.396C64.9897 15.396 64.4377 15.534 63.9337 15.81C63.4417 16.074 63.0457 16.482 62.7457 17.034C62.4457 17.586 62.2957 18.258 62.2957 19.05C62.2957 19.854 62.4397 20.532 62.7277 21.084C63.0277 21.636 63.4237 22.05 63.9157 22.326C64.4077 22.59 64.9477 22.722 65.5357 22.722ZM74.3853 15.738C74.6733 15.174 75.0813 14.736 75.6093 14.424C76.1493 14.112 76.8033 13.956 77.5713 13.956V15.648H77.1393C75.3033 15.648 74.3853 16.644 74.3853 18.636V24H72.7473V14.136H74.3853V15.738ZM79.9842 24.108C79.6722 24.108 79.4082 24 79.1922 23.784C78.9762 23.568 78.8682 23.304 78.8682 22.992C78.8682 22.68 78.9762 22.416 79.1922 22.2C79.4082 21.984 79.6722 21.876 79.9842 21.876C80.2842 21.876 80.5362 21.984 80.7402 22.2C80.9562 22.416 81.0642 22.68 81.0642 22.992C81.0642 23.304 80.9562 23.568 80.7402 23.784C80.5362 24 80.2842 24.108 79.9842 24.108ZM79.9842 16.404C79.6722 16.404 79.4082 16.296 79.1922 16.08C78.9762 15.864 78.8682 15.6 78.8682 15.288C78.8682 14.976 78.9762 14.712 79.1922 14.496C79.4082 14.28 79.6722 14.172 79.9842 14.172C80.2842 14.172 80.5362 14.28 80.7402 14.496C80.9562 14.712 81.0642 14.976 81.0642 15.288C81.0642 15.6 80.9562 15.864 80.7402 16.08C80.5362 16.296 80.2842 16.404 79.9842 16.404Z" fill="#C0D6DF"/>
<path d="M9 11.604V20.789C9.00001 21.4475 9.16257 22.0957 9.47326 22.6763C9.78395 23.2568 10.2332 23.7517 10.781 24.117L16 27.597L21.219 24.117C21.7667 23.7518 22.2158 23.2571 22.5265 22.6767C22.8372 22.0964 22.9998 21.4483 23 20.79V11.604L16 10.05L9 11.604ZM7.783 9.826L16 8L24.217 9.826C24.4391 9.87536 24.6377 9.99897 24.78 10.1764C24.9224 10.3538 25 10.5745 25 10.802V20.789C24.9999 21.7767 24.756 22.7492 24.2899 23.62C23.8238 24.4908 23.1499 25.2331 22.328 25.781L16 30L9.672 25.781C8.85027 25.2332 8.17646 24.4911 7.71035 23.6205C7.24424 22.7498 7.00024 21.7776 7 20.79V10.802C7.00004 10.5745 7.07764 10.3538 7.21999 10.1764C7.36234 9.99897 7.56094 9.87536 7.783 9.826V9.826ZM16 20.5L13.061 22.045L13.622 18.773L11.245 16.455L14.531 15.977L16 13L17.47 15.977L20.755 16.455L18.378 18.773L18.938 22.045L16 20.5Z" fill="#C0D6DF"/>
</svg>
