<svg width="173" height="68" viewBox="0 0 173 68" fill="none" xmlns="http://www.w3.org/2000/svg">
<rect width="173" height="68" rx="6" fill="white" fill-opacity="0.4"/>
<path d="M44.112 11.544V24H42.474V14.712L38.334 24H37.182L33.024 14.694V24H31.386V11.544H33.15L37.758 21.84L42.366 11.544H44.112ZM51.1919 24.162C50.2679 24.162 49.4279 23.952 48.6719 23.532C47.9279 23.112 47.3399 22.518 46.9079 21.75C46.4879 20.97 46.2779 20.07 46.2779 19.05C46.2779 18.042 46.4939 17.154 46.9259 16.386C47.3699 15.606 47.9699 15.012 48.7259 14.604C49.4819 14.184 50.3279 13.974 51.2639 13.974C52.1999 13.974 53.0459 14.184 53.8019 14.604C54.5579 15.012 55.1519 15.6 55.5839 16.368C56.0279 17.136 56.2499 18.03 56.2499 19.05C56.2499 20.07 56.0219 20.97 55.5659 21.75C55.1219 22.518 54.5159 23.112 53.7479 23.532C52.9799 23.952 52.1279 24.162 51.1919 24.162ZM51.1919 22.722C51.7799 22.722 52.3319 22.584 52.8479 22.308C53.3639 22.032 53.7779 21.618 54.0899 21.066C54.4139 20.514 54.5759 19.842 54.5759 19.05C54.5759 18.258 54.4199 17.586 54.1079 17.034C53.7959 16.482 53.3879 16.074 52.8839 15.81C52.3799 15.534 51.8339 15.396 51.2459 15.396C50.6459 15.396 50.0939 15.534 49.5899 15.81C49.0979 16.074 48.7019 16.482 48.4019 17.034C48.1019 17.586 47.9519 18.258 47.9519 19.05C47.9519 19.854 48.0959 20.532 48.3839 21.084C48.6839 21.636 49.0799 22.05 49.5719 22.326C50.0639 22.59 50.6039 22.722 51.1919 22.722ZM57.7916 19.032C57.7916 18.024 57.9956 17.142 58.4036 16.386C58.8116 15.618 59.3696 15.024 60.0776 14.604C60.7976 14.184 61.6016 13.974 62.4896 13.974C63.2576 13.974 63.9716 14.154 64.6316 14.514C65.2916 14.862 65.7956 15.324 66.1436 15.9V10.68H67.7996V24H66.1436V22.146C65.8196 22.734 65.3396 23.22 64.7036 23.604C64.0676 23.976 63.3236 24.162 62.4716 24.162C61.5956 24.162 60.7976 23.946 60.0776 23.514C59.3696 23.082 58.8116 22.476 58.4036 21.696C57.9956 20.916 57.7916 20.028 57.7916 19.032ZM66.1436 19.05C66.1436 18.306 65.9936 17.658 65.6936 17.106C65.3936 16.554 64.9856 16.134 64.4696 15.846C63.9656 15.546 63.4076 15.396 62.7956 15.396C62.1836 15.396 61.6256 15.54 61.1216 15.828C60.6176 16.116 60.2156 16.536 59.9156 17.088C59.6156 17.64 59.4656 18.288 59.4656 19.032C59.4656 19.788 59.6156 20.448 59.9156 21.012C60.2156 21.564 60.6176 21.99 61.1216 22.29C61.6256 22.578 62.1836 22.722 62.7956 22.722C63.4076 22.722 63.9656 22.578 64.4696 22.29C64.9856 21.99 65.3936 21.564 65.6936 21.012C65.9936 20.448 66.1436 19.794 66.1436 19.05ZM79.5676 18.69C79.5676 19.002 79.5496 19.332 79.5136 19.68H71.6296C71.6896 20.652 72.0196 21.414 72.6196 21.966C73.2316 22.506 73.9696 22.776 74.8336 22.776C75.5416 22.776 76.1296 22.614 76.5976 22.29C77.0776 21.954 77.4136 21.51 77.6056 20.958H79.3696C79.1056 21.906 78.5776 22.68 77.7856 23.28C76.9936 23.868 76.0096 24.162 74.8336 24.162C73.8976 24.162 73.0576 23.952 72.3136 23.532C71.5816 23.112 71.0056 22.518 70.5856 21.75C70.1656 20.97 69.9556 20.07 69.9556 19.05C69.9556 18.03 70.1596 17.136 70.5676 16.368C70.9756 15.6 71.5456 15.012 72.2776 14.604C73.0216 14.184 73.8736 13.974 74.8336 13.974C75.7696 13.974 76.5976 14.178 77.3176 14.586C78.0376 14.994 78.5896 15.558 78.9736 16.278C79.3696 16.986 79.5676 17.79 79.5676 18.69ZM77.8756 18.348C77.8756 17.724 77.7376 17.19 77.4616 16.746C77.1856 16.29 76.8076 15.948 76.3276 15.72C75.8596 15.48 75.3376 15.36 74.7616 15.36C73.9336 15.36 73.2256 15.624 72.6376 16.152C72.0616 16.68 71.7316 17.412 71.6476 18.348H77.8756ZM83.3678 10.68V24H81.7298V10.68H83.3678ZM86.6814 24.108C86.3694 24.108 86.1054 24 85.8894 23.784C85.6734 23.568 85.5654 23.304 85.5654 22.992C85.5654 22.68 85.6734 22.416 85.8894 22.2C86.1054 21.984 86.3694 21.876 86.6814 21.876C86.9814 21.876 87.2334 21.984 87.4374 22.2C87.6534 22.416 87.7614 22.68 87.7614 22.992C87.7614 23.304 87.6534 23.568 87.4374 23.784C87.2334 24 86.9814 24.108 86.6814 24.108ZM86.6814 16.404C86.3694 16.404 86.1054 16.296 85.8894 16.08C85.6734 15.864 85.5654 15.6 85.5654 15.288C85.5654 14.976 85.6734 14.712 85.8894 14.496C86.1054 14.28 86.3694 14.172 86.6814 14.172C86.9814 14.172 87.2334 14.28 87.4374 14.496C87.6534 14.712 87.7614 14.976 87.7614 15.288C87.7614 15.6 87.6534 15.864 87.4374 16.08C87.2334 16.296 86.9814 16.404 86.6814 16.404Z" fill="#4F6D7A"/>
<path d="M9 11.604V20.789C9.00001 21.4475 9.16257 22.0957 9.47326 22.6763C9.78395 23.2568 10.2332 23.7517 10.781 24.117L16 27.597L21.219 24.117C21.7667 23.7518 22.2158 23.2571 22.5265 22.6767C22.8372 22.0964 22.9998 21.4483 23 20.79V11.604L16 10.05L9 11.604ZM7.783 9.826L16 8L24.217 9.826C24.4391 9.87536 24.6377 9.99897 24.78 10.1764C24.9224 10.3538 25 10.5745 25 10.802V20.789C24.9999 21.7767 24.756 22.7492 24.2899 23.62C23.8238 24.4908 23.1499 25.2331 22.328 25.781L16 30L9.672 25.781C8.85027 25.2332 8.17646 24.4911 7.71035 23.6205C7.24424 22.7498 7.00024 21.7776 7 20.79V10.802C7.00004 10.5745 7.07764 10.3538 7.21999 10.1764C7.36234 9.99897 7.56094 9.87536 7.783 9.826ZM16 20.5L13.061 22.045L13.622 18.773L11.245 16.455L14.531 15.977L16 13L17.47 15.977L20.755 16.455L18.378 18.773L18.938 22.045L16 20.5Z" fill="#4F6D7A"/>
</svg>
