<svg width="173" height="68" viewBox="0 0 173 68" fill="none" xmlns="http://www.w3.org/2000/svg">
<rect width="173" height="68" rx="6" fill="white" fill-opacity="0.4"/>
<path d="M37.992 24L35.004 18.87H33.024V24H31.386V11.454H35.436C36.384 11.454 37.182 11.616 37.83 11.94C38.49 12.264 38.982 12.702 39.306 13.254C39.63 13.806 39.792 14.436 39.792 15.144C39.792 16.008 39.54 16.77 39.036 17.43C38.544 18.09 37.8 18.528 36.804 18.744L39.954 24H37.992ZM33.024 17.556H35.436C36.324 17.556 36.99 17.34 37.434 16.908C37.878 16.464 38.1 15.876 38.1 15.144C38.1 14.4 37.878 13.824 37.434 13.416C37.002 13.008 36.336 12.804 35.436 12.804H33.024V17.556ZM51.3372 18.69C51.3372 19.002 51.3192 19.332 51.2832 19.68H43.3992C43.4592 20.652 43.7892 21.414 44.3892 21.966C45.0012 22.506 45.7392 22.776 46.6032 22.776C47.3112 22.776 47.8992 22.614 48.3672 22.29C48.8472 21.954 49.1832 21.51 49.3752 20.958H51.1392C50.8752 21.906 50.3472 22.68 49.5552 23.28C48.7632 23.868 47.7792 24.162 46.6032 24.162C45.6672 24.162 44.8272 23.952 44.0832 23.532C43.3512 23.112 42.7752 22.518 42.3552 21.75C41.9352 20.97 41.7252 20.07 41.7252 19.05C41.7252 18.03 41.9292 17.136 42.3372 16.368C42.7452 15.6 43.3152 15.012 44.0472 14.604C44.7912 14.184 45.6432 13.974 46.6032 13.974C47.5392 13.974 48.3672 14.178 49.0872 14.586C49.8072 14.994 50.3592 15.558 50.7432 16.278C51.1392 16.986 51.3372 17.79 51.3372 18.69ZM49.6452 18.348C49.6452 17.724 49.5072 17.19 49.2312 16.746C48.9552 16.29 48.5772 15.948 48.0972 15.72C47.6292 15.48 47.1072 15.36 46.5312 15.36C45.7032 15.36 44.9952 15.624 44.4072 16.152C43.8312 16.68 43.5012 17.412 43.4172 18.348H49.6452ZM57.5133 15.486H55.4433V24H53.8053V15.486H52.5273V14.136H53.8053V13.434C53.8053 12.33 54.0873 11.526 54.6513 11.022C55.2273 10.506 56.1453 10.248 57.4053 10.248V11.616C56.6853 11.616 56.1753 11.76 55.8753 12.048C55.5873 12.324 55.4433 12.786 55.4433 13.434V14.136H57.5133V15.486ZM68.4231 18.69C68.4231 19.002 68.4051 19.332 68.3691 19.68H60.4851C60.5451 20.652 60.8751 21.414 61.4751 21.966C62.0871 22.506 62.8251 22.776 63.6891 22.776C64.3971 22.776 64.9851 22.614 65.4531 22.29C65.9331 21.954 66.2691 21.51 66.4611 20.958H68.2251C67.9611 21.906 67.4331 22.68 66.6411 23.28C65.8491 23.868 64.8651 24.162 63.6891 24.162C62.7531 24.162 61.9131 23.952 61.1691 23.532C60.4371 23.112 59.8611 22.518 59.4411 21.75C59.0211 20.97 58.8111 20.07 58.8111 19.05C58.8111 18.03 59.0151 17.136 59.4231 16.368C59.8311 15.6 60.4011 15.012 61.1331 14.604C61.8771 14.184 62.7291 13.974 63.6891 13.974C64.6251 13.974 65.4531 14.178 66.1731 14.586C66.8931 14.994 67.4451 15.558 67.8291 16.278C68.2251 16.986 68.4231 17.79 68.4231 18.69ZM66.7311 18.348C66.7311 17.724 66.5931 17.19 66.3171 16.746C66.0411 16.29 65.6631 15.948 65.1831 15.72C64.7151 15.48 64.1931 15.36 63.6171 15.36C62.7891 15.36 62.0811 15.624 61.4931 16.152C60.9171 16.68 60.5871 17.412 60.5031 18.348H66.7311ZM72.2232 15.738C72.5112 15.174 72.9192 14.736 73.4472 14.424C73.9872 14.112 74.6412 13.956 75.4092 13.956V15.648H74.9772C73.1412 15.648 72.2232 16.644 72.2232 18.636V24H70.5852V14.136H72.2232V15.738ZM86.3001 18.69C86.3001 19.002 86.2821 19.332 86.2461 19.68H78.3621C78.4221 20.652 78.7521 21.414 79.3521 21.966C79.9641 22.506 80.7021 22.776 81.5661 22.776C82.2741 22.776 82.8621 22.614 83.3301 22.29C83.8101 21.954 84.1461 21.51 84.3381 20.958H86.1021C85.8381 21.906 85.3101 22.68 84.5181 23.28C83.7261 23.868 82.7421 24.162 81.5661 24.162C80.6301 24.162 79.7901 23.952 79.0461 23.532C78.3141 23.112 77.7381 22.518 77.3181 21.75C76.8981 20.97 76.6881 20.07 76.6881 19.05C76.6881 18.03 76.8921 17.136 77.3001 16.368C77.7081 15.6 78.2781 15.012 79.0101 14.604C79.7541 14.184 80.6061 13.974 81.5661 13.974C82.5021 13.974 83.3301 14.178 84.0501 14.586C84.7701 14.994 85.3221 15.558 85.7061 16.278C86.1021 16.986 86.3001 17.79 86.3001 18.69ZM84.6081 18.348C84.6081 17.724 84.4701 17.19 84.1941 16.746C83.9181 16.29 83.5401 15.948 83.0601 15.72C82.5921 15.48 82.0701 15.36 81.4941 15.36C80.6661 15.36 79.9581 15.624 79.3701 16.152C78.7941 16.68 78.4641 17.412 78.3801 18.348H84.6081ZM93.2682 13.956C94.4682 13.956 95.4402 14.322 96.1842 15.054C96.9282 15.774 97.3002 16.818 97.3002 18.186V24H95.6802V18.42C95.6802 17.436 95.4342 16.686 94.9422 16.17C94.4502 15.642 93.7782 15.378 92.9262 15.378C92.0622 15.378 91.3722 15.648 90.8562 16.188C90.3522 16.728 90.1002 17.514 90.1002 18.546V24H88.4622V14.136H90.1002V15.54C90.4242 15.036 90.8622 14.646 91.4142 14.37C91.9782 14.094 92.5962 13.956 93.2682 13.956ZM99.3638 19.05C99.3638 18.03 99.5678 17.142 99.9758 16.386C100.384 15.618 100.948 15.024 101.668 14.604C102.4 14.184 103.234 13.974 104.17 13.974C105.382 13.974 106.378 14.268 107.158 14.856C107.95 15.444 108.472 16.26 108.724 17.304H106.96C106.792 16.704 106.462 16.23 105.97 15.882C105.49 15.534 104.89 15.36 104.17 15.36C103.234 15.36 102.478 15.684 101.902 16.332C101.326 16.968 101.038 17.874 101.038 19.05C101.038 20.238 101.326 21.156 101.902 21.804C102.478 22.452 103.234 22.776 104.17 22.776C104.89 22.776 105.49 22.608 105.97 22.272C106.45 21.936 106.78 21.456 106.96 20.832H108.724C108.46 21.84 107.932 22.65 107.14 23.262C106.348 23.862 105.358 24.162 104.17 24.162C103.234 24.162 102.4 23.952 101.668 23.532C100.948 23.112 100.384 22.518 99.9758 21.75C99.5678 20.982 99.3638 20.082 99.3638 19.05ZM119.909 18.69C119.909 19.002 119.891 19.332 119.855 19.68H111.971C112.031 20.652 112.361 21.414 112.961 21.966C113.573 22.506 114.311 22.776 115.175 22.776C115.883 22.776 116.471 22.614 116.939 22.29C117.419 21.954 117.755 21.51 117.947 20.958H119.711C119.447 21.906 118.919 22.68 118.127 23.28C117.335 23.868 116.351 24.162 115.175 24.162C114.239 24.162 113.399 23.952 112.655 23.532C111.923 23.112 111.347 22.518 110.927 21.75C110.507 20.97 110.297 20.07 110.297 19.05C110.297 18.03 110.501 17.136 110.909 16.368C111.317 15.6 111.887 15.012 112.619 14.604C113.363 14.184 114.215 13.974 115.175 13.974C116.111 13.974 116.939 14.178 117.659 14.586C118.379 14.994 118.931 15.558 119.315 16.278C119.711 16.986 119.909 17.79 119.909 18.69ZM118.217 18.348C118.217 17.724 118.079 17.19 117.803 16.746C117.527 16.29 117.149 15.948 116.669 15.72C116.201 15.48 115.679 15.36 115.103 15.36C114.275 15.36 113.567 15.624 112.979 16.152C112.403 16.68 112.073 17.412 111.989 18.348H118.217ZM122.594 24.108C122.282 24.108 122.018 24 121.802 23.784C121.586 23.568 121.478 23.304 121.478 22.992C121.478 22.68 121.586 22.416 121.802 22.2C122.018 21.984 122.282 21.876 122.594 21.876C122.894 21.876 123.146 21.984 123.35 22.2C123.566 22.416 123.674 22.68 123.674 22.992C123.674 23.304 123.566 23.568 123.35 23.784C123.146 24 122.894 24.108 122.594 24.108ZM122.594 16.404C122.282 16.404 122.018 16.296 121.802 16.08C121.586 15.864 121.478 15.6 121.478 15.288C121.478 14.976 121.586 14.712 121.802 14.496C122.018 14.28 122.282 14.172 122.594 14.172C122.894 14.172 123.146 14.28 123.35 14.496C123.566 14.712 123.674 14.976 123.674 15.288C123.674 15.6 123.566 15.864 123.35 16.08C123.146 16.296 122.894 16.404 122.594 16.404Z" fill="#4F6D7A"/>
<path d="M9 11.604V20.789C9.00001 21.4475 9.16257 22.0957 9.47326 22.6763C9.78395 23.2568 10.2332 23.7517 10.781 24.117L16 27.597L21.219 24.117C21.7667 23.7518 22.2158 23.2571 22.5265 22.6767C22.8372 22.0964 22.9998 21.4483 23 20.79V11.604L16 10.05L9 11.604ZM7.783 9.826L16 8L24.217 9.826C24.4391 9.87536 24.6377 9.99897 24.78 10.1764C24.9224 10.3538 25 10.5745 25 10.802V20.789C24.9999 21.7767 24.756 22.7492 24.2899 23.62C23.8238 24.4908 23.1499 25.2331 22.328 25.781L16 30L9.672 25.781C8.85027 25.2332 8.17646 24.4911 7.71035 23.6205C7.24424 22.7498 7.00024 21.7776 7 20.79V10.802C7.00004 10.5745 7.07764 10.3538 7.21999 10.1764C7.36234 9.99897 7.56094 9.87536 7.783 9.826ZM16 20.5L13.061 22.045L13.622 18.773L11.245 16.455L14.531 15.977L16 13L17.47 15.977L20.755 16.455L18.378 18.773L18.938 22.045L16 20.5Z" fill="#4F6D7A"/>
</svg>
