<svg width="62" height="62" viewBox="0 0 62 62" fill="none" xmlns="http://www.w3.org/2000/svg">
<g filter="url(#filter0_di_2_93)">
<rect x="2" width="58" height="58" rx="10" fill="#5A606E"/>
</g>
<path d="M40 28.5H40.5V29.5H40V28.5ZM21.6464 29.3536C21.4512 29.1583 21.4512 28.8417 21.6464 28.6464L24.8284 25.4645C25.0237 25.2692 25.3403 25.2692 25.5355 25.4645C25.7308 25.6597 25.7308 25.9763 25.5355 26.1716L22.7071 29L25.5355 31.8284C25.7308 32.0237 25.7308 32.3403 25.5355 32.5355C25.3403 32.7308 25.0237 32.7308 24.8284 32.5355L21.6464 29.3536ZM40 29.5H22V28.5H40V29.5Z" fill="#CBCDDB"/>
<defs>
<filter id="filter0_di_2_93" x="0" y="0" width="62" height="62" filterUnits="userSpaceOnUse" color-interpolation-filters="sRGB">
<feFlood flood-opacity="0" result="BackgroundImageFix"/>
<feColorMatrix in="SourceAlpha" type="matrix" values="0 0 0 0 0 0 0 0 0 0 0 0 0 0 0 0 0 0 127 0" result="hardAlpha"/>
<feOffset dy="2"/>
<feGaussianBlur stdDeviation="1"/>
<feComposite in2="hardAlpha" operator="out"/>
<feColorMatrix type="matrix" values="0 0 0 0 0 0 0 0 0 0 0 0 0 0 0 0 0 0 0.2 0"/>
<feBlend mode="normal" in2="BackgroundImageFix" result="effect1_dropShadow_2_93"/>
<feBlend mode="normal" in="SourceGraphic" in2="effect1_dropShadow_2_93" result="shape"/>
<feColorMatrix in="SourceAlpha" type="matrix" values="0 0 0 0 0 0 0 0 0 0 0 0 0 0 0 0 0 0 127 0" result="hardAlpha"/>
<feOffset dy="2"/>
<feGaussianBlur stdDeviation="1"/>
<feComposite in2="hardAlpha" operator="arithmetic" k2="-1" k3="1"/>
<feColorMatrix type="matrix" values="0 0 0 0 0 0 0 0 0 0 0 0 0 0 0 0 0 0 0.2 0"/>
<feBlend mode="normal" in2="shape" result="effect2_innerShadow_2_93"/>
</filter>
</defs>
</svg>
