<svg width="58" height="58" viewBox="0 0 58 58" fill="none" xmlns="http://www.w3.org/2000/svg">
<g filter="url(#filter0_i_2_163)">
<rect width="58" height="58" rx="10" fill="#B9BDC9"/>
</g>
<path d="M38 28.5H38.5V29.5H38V28.5ZM19.6464 29.3536C19.4512 29.1583 19.4512 28.8417 19.6464 28.6464L22.8284 25.4645C23.0237 25.2692 23.3403 25.2692 23.5355 25.4645C23.7308 25.6597 23.7308 25.9763 23.5355 26.1716L20.7071 29L23.5355 31.8284C23.7308 32.0237 23.7308 32.3403 23.5355 32.5355C23.3403 32.7308 23.0237 32.7308 22.8284 32.5355L19.6464 29.3536ZM38 29.5H20V28.5H38V29.5Z" fill="#2E333D"/>
<defs>
<filter id="filter0_i_2_163" x="0" y="0" width="58" height="60" filterUnits="userSpaceOnUse" color-interpolation-filters="sRGB">
<feFlood flood-opacity="0" result="BackgroundImageFix"/>
<feBlend mode="normal" in="SourceGraphic" in2="BackgroundImageFix" result="shape"/>
<feColorMatrix in="SourceAlpha" type="matrix" values="0 0 0 0 0 0 0 0 0 0 0 0 0 0 0 0 0 0 127 0" result="hardAlpha"/>
<feOffset dy="2"/>
<feGaussianBlur stdDeviation="7"/>
<feComposite in2="hardAlpha" operator="arithmetic" k2="-1" k3="1"/>
<feColorMatrix type="matrix" values="0 0 0 0 1 0 0 0 0 1 0 0 0 0 1 0 0 0 0.2 0"/>
<feBlend mode="normal" in2="shape" result="effect1_innerShadow_2_163"/>
</filter>
</defs>
</svg>
