<svg width="138" height="58" viewBox="0 0 138 58" fill="none" xmlns="http://www.w3.org/2000/svg">
<g filter="url(#filter0_i_2_128)">
<rect width="138" height="58" rx="10" fill="#EDEDED"/>
</g>
<path d="M63.34 28.82C63.34 26.5133 63.6733 24.74 64.34 23.5C65.0067 22.2467 66.2333 21.62 68.02 21.62C69.7933 21.62 71.0133 22.2467 71.68 23.5C72.3467 24.74 72.68 26.5133 72.68 28.82C72.68 31.1533 72.3467 32.9533 71.68 34.22C71.0133 35.4733 69.7933 36.1 68.02 36.1C66.2333 36.1 65.0067 35.4733 64.34 34.22C63.6733 32.9533 63.34 31.1533 63.34 28.82ZM71.8 28.82C71.8 27.4867 71.7 26.36 71.5 25.44C71.3133 24.52 70.94 23.7933 70.38 23.26C69.8333 22.7133 69.0467 22.44 68.02 22.44C66.9933 22.44 66.2 22.7133 65.64 23.26C65.0933 23.7933 64.72 24.52 64.52 25.44C64.3333 26.36 64.24 27.4867 64.24 28.82C64.24 30.18 64.3333 31.3267 64.52 32.26C64.72 33.18 65.0933 33.9133 65.64 34.46C66.2 35.0067 66.9933 35.28 68.02 35.28C69.0467 35.28 69.8333 35.0067 70.38 34.46C70.94 33.9133 71.3133 33.18 71.5 32.26C71.7 31.3267 71.8 30.18 71.8 28.82Z" fill="#645D5C"/>
<defs>
<filter id="filter0_i_2_128" x="0" y="0" width="138" height="60" filterUnits="userSpaceOnUse" color-interpolation-filters="sRGB">
<feFlood flood-opacity="0" result="BackgroundImageFix"/>
<feBlend mode="normal" in="SourceGraphic" in2="BackgroundImageFix" result="shape"/>
<feColorMatrix in="SourceAlpha" type="matrix" values="0 0 0 0 0 0 0 0 0 0 0 0 0 0 0 0 0 0 127 0" result="hardAlpha"/>
<feOffset dy="2"/>
<feGaussianBlur stdDeviation="3"/>
<feComposite in2="hardAlpha" operator="arithmetic" k2="-1" k3="1"/>
<feColorMatrix type="matrix" values="0 0 0 0 1 0 0 0 0 1 0 0 0 0 1 0 0 0 0.2 0"/>
<feBlend mode="normal" in2="shape" result="effect1_innerShadow_2_128"/>
</filter>
</defs>
</svg>
