<svg width="142" height="62" viewBox="0 0 142 62" fill="none" xmlns="http://www.w3.org/2000/svg">
<g filter="url(#filter0_di_2_53)">
<rect x="2" width="138" height="58" rx="10" fill="#333743"/>
</g>
<path d="M65.34 28.82C65.34 26.5133 65.6733 24.74 66.34 23.5C67.0067 22.2467 68.2333 21.62 70.02 21.62C71.7933 21.62 73.0133 22.2467 73.68 23.5C74.3467 24.74 74.68 26.5133 74.68 28.82C74.68 31.1533 74.3467 32.9533 73.68 34.22C73.0133 35.4733 71.7933 36.1 70.02 36.1C68.2333 36.1 67.0067 35.4733 66.34 34.22C65.6733 32.9533 65.34 31.1533 65.34 28.82ZM73.8 28.82C73.8 27.4867 73.7 26.36 73.5 25.44C73.3133 24.52 72.94 23.7933 72.38 23.26C71.8333 22.7133 71.0467 22.44 70.02 22.44C68.9933 22.44 68.2 22.7133 67.64 23.26C67.0933 23.7933 66.72 24.52 66.52 25.44C66.3333 26.36 66.24 27.4867 66.24 28.82C66.24 30.18 66.3333 31.3267 66.52 32.26C66.72 33.18 67.0933 33.9133 67.64 34.46C68.2 35.0067 68.9933 35.28 70.02 35.28C71.0467 35.28 71.8333 35.0067 72.38 34.46C72.94 33.9133 73.3133 33.18 73.5 32.26C73.7 31.3267 73.8 30.18 73.8 28.82Z" fill="#B7BBC7"/>
<defs>
<filter id="filter0_di_2_53" x="0" y="0" width="142" height="62" filterUnits="userSpaceOnUse" color-interpolation-filters="sRGB">
<feFlood flood-opacity="0" result="BackgroundImageFix"/>
<feColorMatrix in="SourceAlpha" type="matrix" values="0 0 0 0 0 0 0 0 0 0 0 0 0 0 0 0 0 0 127 0" result="hardAlpha"/>
<feOffset dy="2"/>
<feGaussianBlur stdDeviation="1"/>
<feComposite in2="hardAlpha" operator="out"/>
<feColorMatrix type="matrix" values="0 0 0 0 0 0 0 0 0 0 0 0 0 0 0 0 0 0 0.2 0"/>
<feBlend mode="normal" in2="BackgroundImageFix" result="effect1_dropShadow_2_53"/>
<feBlend mode="normal" in="SourceGraphic" in2="effect1_dropShadow_2_53" result="shape"/>
<feColorMatrix in="SourceAlpha" type="matrix" values="0 0 0 0 0 0 0 0 0 0 0 0 0 0 0 0 0 0 127 0" result="hardAlpha"/>
<feOffset dy="2"/>
<feGaussianBlur stdDeviation="1"/>
<feComposite in2="hardAlpha" operator="arithmetic" k2="-1" k3="1"/>
<feColorMatrix type="matrix" values="0 0 0 0 0 0 0 0 0 0 0 0 0 0 0 0 0 0 0.2 0"/>
<feBlend mode="normal" in2="shape" result="effect2_innerShadow_2_53"/>
</filter>
</defs>
</svg>
