<svg width="62" height="62" viewBox="0 0 62 62" fill="none" xmlns="http://www.w3.org/2000/svg">
<g filter="url(#filter0_di_2_51)">
<rect x="2" width="58" height="58" rx="10" fill="#333743"/>
</g>
<path d="M26 35.34C28.5067 33.6067 30.48 31.9333 31.92 30.32C33.3733 28.7067 34.1 27.16 34.1 25.68C34.1 24.7067 33.84 23.9133 33.32 23.3C32.8133 22.6867 31.98 22.38 30.82 22.38C29.66 22.38 28.7733 22.7333 28.16 23.44C27.5467 24.1467 27.2 25.08 27.12 26.24H26.24C26.3333 24.7733 26.7867 23.6333 27.6 22.82C28.4133 22.0067 29.4867 21.6 30.82 21.6C32.0333 21.6 33.0267 21.94 33.8 22.62C34.5867 23.3 34.98 24.3133 34.98 25.66C34.98 27.3267 34.2133 29.0067 32.68 30.7C31.16 32.3933 29.42 33.8867 27.46 35.18H35.44V35.94H26V35.34Z" fill="#B7BBC7"/>
<defs>
<filter id="filter0_di_2_51" x="0" y="0" width="62" height="62" filterUnits="userSpaceOnUse" color-interpolation-filters="sRGB">
<feFlood flood-opacity="0" result="BackgroundImageFix"/>
<feColorMatrix in="SourceAlpha" type="matrix" values="0 0 0 0 0 0 0 0 0 0 0 0 0 0 0 0 0 0 127 0" result="hardAlpha"/>
<feOffset dy="2"/>
<feGaussianBlur stdDeviation="1"/>
<feComposite in2="hardAlpha" operator="out"/>
<feColorMatrix type="matrix" values="0 0 0 0 0 0 0 0 0 0 0 0 0 0 0 0 0 0 0.2 0"/>
<feBlend mode="normal" in2="BackgroundImageFix" result="effect1_dropShadow_2_51"/>
<feBlend mode="normal" in="SourceGraphic" in2="effect1_dropShadow_2_51" result="shape"/>
<feColorMatrix in="SourceAlpha" type="matrix" values="0 0 0 0 0 0 0 0 0 0 0 0 0 0 0 0 0 0 127 0" result="hardAlpha"/>
<feOffset dy="2"/>
<feGaussianBlur stdDeviation="1"/>
<feComposite in2="hardAlpha" operator="arithmetic" k2="-1" k3="1"/>
<feColorMatrix type="matrix" values="0 0 0 0 0 0 0 0 0 0 0 0 0 0 0 0 0 0 0.2 0"/>
<feBlend mode="normal" in2="shape" result="effect2_innerShadow_2_51"/>
</filter>
</defs>
</svg>
