<svg width="58" height="58" viewBox="0 0 58 58" fill="none" xmlns="http://www.w3.org/2000/svg">
<g filter="url(#filter0_i_2_187)">
<rect width="58" height="58" rx="10" fill="#EDEDED"/>
</g>
<path d="M24.28 25.5C24.4 24.2867 24.8667 23.3333 25.68 22.64C26.5067 21.9467 27.5933 21.6 28.94 21.6C29.8067 21.6 30.5467 21.76 31.16 22.08C31.7733 22.3867 32.24 22.8067 32.56 23.34C32.88 23.8733 33.04 24.48 33.04 25.16C33.04 26.0133 32.78 26.7533 32.26 27.38C31.74 27.9933 30.9467 28.36 29.88 28.48V28.6C30.9067 28.76 31.7333 29.1533 32.36 29.78C32.9867 30.4067 33.3 31.2467 33.3 32.3C33.3 33.42 32.9267 34.34 32.18 35.06C31.4467 35.7667 30.3667 36.12 28.94 36.12C27.5933 36.12 26.48 35.76 25.6 35.04C24.7333 34.32 24.2133 33.3 24.04 31.98H24.92C25.08 32.9667 25.5067 33.7733 26.2 34.4C26.8933 35.0133 27.8067 35.32 28.94 35.32C30.0867 35.32 30.9533 35.0333 31.54 34.46C32.14 33.8867 32.44 33.1467 32.44 32.24C32.44 31.1467 32.02 30.3267 31.18 29.78C30.3533 29.2333 29.1667 28.96 27.62 28.96H27.24V28.18H27.64C30.6533 28.1667 32.16 27.18 32.16 25.22C32.16 24.3667 31.8733 23.68 31.3 23.16C30.74 22.64 29.9467 22.38 28.92 22.38C27.92 22.38 27.0733 22.6467 26.38 23.18C25.7 23.7 25.2933 24.4733 25.16 25.5H24.28Z" fill="#494950"/>
<defs>
<filter id="filter0_i_2_187" x="0" y="0" width="58" height="60" filterUnits="userSpaceOnUse" color-interpolation-filters="sRGB">
<feFlood flood-opacity="0" result="BackgroundImageFix"/>
<feBlend mode="normal" in="SourceGraphic" in2="BackgroundImageFix" result="shape"/>
<feColorMatrix in="SourceAlpha" type="matrix" values="0 0 0 0 0 0 0 0 0 0 0 0 0 0 0 0 0 0 127 0" result="hardAlpha"/>
<feOffset dy="2"/>
<feGaussianBlur stdDeviation="3"/>
<feComposite in2="hardAlpha" operator="arithmetic" k2="-1" k3="1"/>
<feColorMatrix type="matrix" values="0 0 0 0 1 0 0 0 0 1 0 0 0 0 1 0 0 0 0.2 0"/>
<feBlend mode="normal" in2="shape" result="effect1_innerShadow_2_187"/>
</filter>
</defs>
</svg>
