<svg width="58" height="58" viewBox="0 0 58 58" fill="none" xmlns="http://www.w3.org/2000/svg">
<g filter="url(#filter0_i_2_166)">
<rect width="58" height="58" rx="10" fill="#EDEDED"/>
</g>
<path d="M27.32 28.66C26.3867 28.42 25.6867 28.0067 25.22 27.42C24.7533 26.8333 24.52 26.1267 24.52 25.3C24.52 24.2067 24.9267 23.32 25.74 22.64C26.5667 21.96 27.7067 21.62 29.16 21.62C30.6133 21.62 31.7467 21.96 32.56 22.64C33.3867 23.32 33.8 24.2067 33.8 25.3C33.8 26.1133 33.5667 26.82 33.1 27.42C32.6333 28.0067 31.9333 28.42 31 28.66C32 28.8733 32.78 29.3 33.34 29.94C33.9133 30.58 34.2 31.38 34.2 32.34C34.2 33.6067 33.7467 34.6133 32.84 35.36C31.9467 36.0933 30.72 36.46 29.16 36.46C27.6 36.46 26.3733 36.0933 25.48 35.36C24.5867 34.6133 24.14 33.6067 24.14 32.34C24.14 31.38 24.42 30.58 24.98 29.94C25.5533 29.2867 26.3333 28.86 27.32 28.66ZM32.92 25.36C32.92 24.4133 32.58 23.68 31.9 23.16C31.22 22.64 30.3067 22.38 29.16 22.38C28.0133 22.38 27.1 22.64 26.42 23.16C25.74 23.6667 25.4 24.4067 25.4 25.38C25.4 26.3 25.74 27.0267 26.42 27.56C27.1 28.08 28.0133 28.34 29.16 28.34C30.3067 28.34 31.22 28.0733 31.9 27.54C32.58 27.0067 32.92 26.28 32.92 25.36ZM29.16 29.06C27.9467 29.06 26.9467 29.3267 26.16 29.86C25.3867 30.3933 25 31.2133 25 32.32C25 33.3733 25.3733 34.2 26.12 34.8C26.88 35.4 27.8933 35.7 29.16 35.7C30.4267 35.7 31.4333 35.4 32.18 34.8C32.9267 34.2 33.3 33.3733 33.3 32.32C33.3 31.2267 32.9133 30.4133 32.14 29.88C31.3667 29.3333 30.3733 29.06 29.16 29.06Z" fill="#494950"/>
<defs>
<filter id="filter0_i_2_166" x="0" y="0" width="58" height="60" filterUnits="userSpaceOnUse" color-interpolation-filters="sRGB">
<feFlood flood-opacity="0" result="BackgroundImageFix"/>
<feBlend mode="normal" in="SourceGraphic" in2="BackgroundImageFix" result="shape"/>
<feColorMatrix in="SourceAlpha" type="matrix" values="0 0 0 0 0 0 0 0 0 0 0 0 0 0 0 0 0 0 127 0" result="hardAlpha"/>
<feOffset dy="2"/>
<feGaussianBlur stdDeviation="3"/>
<feComposite in2="hardAlpha" operator="arithmetic" k2="-1" k3="1"/>
<feColorMatrix type="matrix" values="0 0 0 0 1 0 0 0 0 1 0 0 0 0 1 0 0 0 0.2 0"/>
<feBlend mode="normal" in2="shape" result="effect1_innerShadow_2_166"/>
</filter>
</defs>
</svg>
